<mxfile host="app.diagrams.net" agent="Mozilla/5.0 (Windows NT 10.0; Win64; x64) AppleWebKit/537.36 (KHTML, like Gecko) Chrome/128.0.0.0 Safari/537.36 OPR/114.0.0.0" version="24.7.17">
  <diagram name="Page-1" id="mvcRo9Y-opTmP7Bjdz8X">
    <mxGraphModel dx="2748" dy="2067" grid="1" gridSize="10" guides="1" tooltips="1" connect="1" arrows="1" fold="1" page="1" pageScale="1" pageWidth="827" pageHeight="1169" math="0" shadow="0">
      <root>
        <mxCell id="0" />
        <mxCell id="1" parent="0" />
        <mxCell id="kqVs6nVT71hv-M2BMfZQ-224" value="etat_produit" style="shape=table;startSize=30;container=1;collapsible=1;childLayout=tableLayout;fixedRows=1;rowLines=0;fontStyle=1;align=center;resizeLast=1;html=1;fillColor=#CCE5FF;" parent="1" vertex="1">
          <mxGeometry x="200" y="710" width="180" height="90" as="geometry" />
        </mxCell>
        <mxCell id="kqVs6nVT71hv-M2BMfZQ-225" value="" style="shape=tableRow;horizontal=0;startSize=0;swimlaneHead=0;swimlaneBody=0;fillColor=#FFFFFF;collapsible=0;dropTarget=0;points=[[0,0.5],[1,0.5]];portConstraint=eastwest;top=0;left=0;right=0;bottom=1;" parent="kqVs6nVT71hv-M2BMfZQ-224" vertex="1">
          <mxGeometry y="30" width="180" height="30" as="geometry" />
        </mxCell>
        <mxCell id="kqVs6nVT71hv-M2BMfZQ-226" value="PK" style="shape=partialRectangle;connectable=0;fillColor=#FFFFFF;top=0;left=0;bottom=0;right=0;fontStyle=1;overflow=hidden;whiteSpace=wrap;html=1;" parent="kqVs6nVT71hv-M2BMfZQ-225" vertex="1">
          <mxGeometry width="30" height="30" as="geometry">
            <mxRectangle width="30" height="30" as="alternateBounds" />
          </mxGeometry>
        </mxCell>
        <mxCell id="kqVs6nVT71hv-M2BMfZQ-227" value="etat_id" style="shape=partialRectangle;connectable=0;fillColor=#FFFFFF;top=0;left=0;bottom=0;right=0;align=left;spacingLeft=6;fontStyle=5;overflow=hidden;whiteSpace=wrap;html=1;" parent="kqVs6nVT71hv-M2BMfZQ-225" vertex="1">
          <mxGeometry x="30" width="150" height="30" as="geometry">
            <mxRectangle width="150" height="30" as="alternateBounds" />
          </mxGeometry>
        </mxCell>
        <mxCell id="kqVs6nVT71hv-M2BMfZQ-228" value="" style="shape=tableRow;horizontal=0;startSize=0;swimlaneHead=0;swimlaneBody=0;fillColor=#FFFFFF;collapsible=0;dropTarget=0;points=[[0,0.5],[1,0.5]];portConstraint=eastwest;top=0;left=0;right=0;bottom=0;" parent="kqVs6nVT71hv-M2BMfZQ-224" vertex="1">
          <mxGeometry y="60" width="180" height="30" as="geometry" />
        </mxCell>
        <mxCell id="kqVs6nVT71hv-M2BMfZQ-229" value="" style="shape=partialRectangle;connectable=0;fillColor=#FFFFFF;top=0;left=0;bottom=0;right=0;editable=1;overflow=hidden;whiteSpace=wrap;html=1;" parent="kqVs6nVT71hv-M2BMfZQ-228" vertex="1">
          <mxGeometry width="30" height="30" as="geometry">
            <mxRectangle width="30" height="30" as="alternateBounds" />
          </mxGeometry>
        </mxCell>
        <mxCell id="kqVs6nVT71hv-M2BMfZQ-230" value="description" style="shape=partialRectangle;connectable=0;fillColor=#FFFFFF;top=0;left=0;bottom=0;right=0;align=left;spacingLeft=6;overflow=hidden;whiteSpace=wrap;html=1;" parent="kqVs6nVT71hv-M2BMfZQ-228" vertex="1">
          <mxGeometry x="30" width="150" height="30" as="geometry">
            <mxRectangle width="150" height="30" as="alternateBounds" />
          </mxGeometry>
        </mxCell>
        <mxCell id="kqVs6nVT71hv-M2BMfZQ-268" value="role" style="shape=table;startSize=30;container=1;collapsible=1;childLayout=tableLayout;fixedRows=1;rowLines=0;fontStyle=1;align=center;resizeLast=1;html=1;fillColor=#CCE5FF;" parent="1" vertex="1">
          <mxGeometry x="-330" y="290" width="180" height="90" as="geometry" />
        </mxCell>
        <mxCell id="kqVs6nVT71hv-M2BMfZQ-269" value="" style="shape=tableRow;horizontal=0;startSize=0;swimlaneHead=0;swimlaneBody=0;fillColor=#FFFFFF;collapsible=0;dropTarget=0;points=[[0,0.5],[1,0.5]];portConstraint=eastwest;top=0;left=0;right=0;bottom=1;" parent="kqVs6nVT71hv-M2BMfZQ-268" vertex="1">
          <mxGeometry y="30" width="180" height="30" as="geometry" />
        </mxCell>
        <mxCell id="kqVs6nVT71hv-M2BMfZQ-270" value="PK" style="shape=partialRectangle;connectable=0;fillColor=#FFFFFF;top=0;left=0;bottom=0;right=0;fontStyle=1;overflow=hidden;whiteSpace=wrap;html=1;" parent="kqVs6nVT71hv-M2BMfZQ-269" vertex="1">
          <mxGeometry width="30" height="30" as="geometry">
            <mxRectangle width="30" height="30" as="alternateBounds" />
          </mxGeometry>
        </mxCell>
        <mxCell id="kqVs6nVT71hv-M2BMfZQ-271" value="role_id" style="shape=partialRectangle;connectable=0;fillColor=#FFFFFF;top=0;left=0;bottom=0;right=0;align=left;spacingLeft=6;fontStyle=5;overflow=hidden;whiteSpace=wrap;html=1;" parent="kqVs6nVT71hv-M2BMfZQ-269" vertex="1">
          <mxGeometry x="30" width="150" height="30" as="geometry">
            <mxRectangle width="150" height="30" as="alternateBounds" />
          </mxGeometry>
        </mxCell>
        <mxCell id="kqVs6nVT71hv-M2BMfZQ-272" value="" style="shape=tableRow;horizontal=0;startSize=0;swimlaneHead=0;swimlaneBody=0;fillColor=#FFFFFF;collapsible=0;dropTarget=0;points=[[0,0.5],[1,0.5]];portConstraint=eastwest;top=0;left=0;right=0;bottom=0;" parent="kqVs6nVT71hv-M2BMfZQ-268" vertex="1">
          <mxGeometry y="60" width="180" height="30" as="geometry" />
        </mxCell>
        <mxCell id="kqVs6nVT71hv-M2BMfZQ-273" value="" style="shape=partialRectangle;connectable=0;fillColor=#FFFFFF;top=0;left=0;bottom=0;right=0;editable=1;overflow=hidden;whiteSpace=wrap;html=1;" parent="kqVs6nVT71hv-M2BMfZQ-272" vertex="1">
          <mxGeometry width="30" height="30" as="geometry">
            <mxRectangle width="30" height="30" as="alternateBounds" />
          </mxGeometry>
        </mxCell>
        <mxCell id="kqVs6nVT71hv-M2BMfZQ-274" value="role" style="shape=partialRectangle;connectable=0;fillColor=#FFFFFF;top=0;left=0;bottom=0;right=0;align=left;spacingLeft=6;overflow=hidden;whiteSpace=wrap;html=1;" parent="kqVs6nVT71hv-M2BMfZQ-272" vertex="1">
          <mxGeometry x="30" width="150" height="30" as="geometry">
            <mxRectangle width="150" height="30" as="alternateBounds" />
          </mxGeometry>
        </mxCell>
        <mxCell id="kqVs6nVT71hv-M2BMfZQ-275" value="payement" style="shape=table;startSize=30;container=1;collapsible=1;childLayout=tableLayout;fixedRows=1;rowLines=0;fontStyle=1;align=center;resizeLast=1;html=1;fillColor=#CCE5FF;" parent="1" vertex="1">
          <mxGeometry x="460" y="210" width="180" height="90" as="geometry" />
        </mxCell>
        <mxCell id="kqVs6nVT71hv-M2BMfZQ-276" value="" style="shape=tableRow;horizontal=0;startSize=0;swimlaneHead=0;swimlaneBody=0;fillColor=#FFFFFF;collapsible=0;dropTarget=0;points=[[0,0.5],[1,0.5]];portConstraint=eastwest;top=0;left=0;right=0;bottom=1;" parent="kqVs6nVT71hv-M2BMfZQ-275" vertex="1">
          <mxGeometry y="30" width="180" height="30" as="geometry" />
        </mxCell>
        <mxCell id="kqVs6nVT71hv-M2BMfZQ-277" value="PK" style="shape=partialRectangle;connectable=0;fillColor=#FFFFFF;top=0;left=0;bottom=0;right=0;fontStyle=1;overflow=hidden;whiteSpace=wrap;html=1;" parent="kqVs6nVT71hv-M2BMfZQ-276" vertex="1">
          <mxGeometry width="30" height="30" as="geometry">
            <mxRectangle width="30" height="30" as="alternateBounds" />
          </mxGeometry>
        </mxCell>
        <mxCell id="kqVs6nVT71hv-M2BMfZQ-278" value="&lt;span style=&quot;text-align: center; text-wrap: nowrap;&quot;&gt;paiement_id&lt;/span&gt;" style="shape=partialRectangle;connectable=0;fillColor=#FFFFFF;top=0;left=0;bottom=0;right=0;align=left;spacingLeft=6;fontStyle=5;overflow=hidden;whiteSpace=wrap;html=1;" parent="kqVs6nVT71hv-M2BMfZQ-276" vertex="1">
          <mxGeometry x="30" width="150" height="30" as="geometry">
            <mxRectangle width="150" height="30" as="alternateBounds" />
          </mxGeometry>
        </mxCell>
        <mxCell id="kqVs6nVT71hv-M2BMfZQ-279" value="" style="shape=tableRow;horizontal=0;startSize=0;swimlaneHead=0;swimlaneBody=0;fillColor=#FFFFFF;collapsible=0;dropTarget=0;points=[[0,0.5],[1,0.5]];portConstraint=eastwest;top=0;left=0;right=0;bottom=0;" parent="kqVs6nVT71hv-M2BMfZQ-275" vertex="1">
          <mxGeometry y="60" width="180" height="30" as="geometry" />
        </mxCell>
        <mxCell id="kqVs6nVT71hv-M2BMfZQ-280" value="" style="shape=partialRectangle;connectable=0;fillColor=#FFFFFF;top=0;left=0;bottom=0;right=0;editable=1;overflow=hidden;whiteSpace=wrap;html=1;" parent="kqVs6nVT71hv-M2BMfZQ-279" vertex="1">
          <mxGeometry width="30" height="30" as="geometry">
            <mxRectangle width="30" height="30" as="alternateBounds" />
          </mxGeometry>
        </mxCell>
        <mxCell id="kqVs6nVT71hv-M2BMfZQ-281" value="type" style="shape=partialRectangle;connectable=0;fillColor=#FFFFFF;top=0;left=0;bottom=0;right=0;align=left;spacingLeft=6;overflow=hidden;whiteSpace=wrap;html=1;" parent="kqVs6nVT71hv-M2BMfZQ-279" vertex="1">
          <mxGeometry x="30" width="150" height="30" as="geometry">
            <mxRectangle width="150" height="30" as="alternateBounds" />
          </mxGeometry>
        </mxCell>
        <mxCell id="kqVs6nVT71hv-M2BMfZQ-308" value="photo" style="shape=table;startSize=30;container=1;collapsible=1;childLayout=tableLayout;fixedRows=1;rowLines=0;fontStyle=1;align=center;resizeLast=1;html=1;fillColor=#CCE5FF;" parent="1" vertex="1">
          <mxGeometry x="-330" y="440" width="180" height="90" as="geometry" />
        </mxCell>
        <mxCell id="kqVs6nVT71hv-M2BMfZQ-309" value="" style="shape=tableRow;horizontal=0;startSize=0;swimlaneHead=0;swimlaneBody=0;fillColor=#FFFFFF;collapsible=0;dropTarget=0;points=[[0,0.5],[1,0.5]];portConstraint=eastwest;top=0;left=0;right=0;bottom=1;" parent="kqVs6nVT71hv-M2BMfZQ-308" vertex="1">
          <mxGeometry y="30" width="180" height="30" as="geometry" />
        </mxCell>
        <mxCell id="kqVs6nVT71hv-M2BMfZQ-310" value="PK" style="shape=partialRectangle;connectable=0;fillColor=#FFFFFF;top=0;left=0;bottom=0;right=0;fontStyle=1;overflow=hidden;whiteSpace=wrap;html=1;" parent="kqVs6nVT71hv-M2BMfZQ-309" vertex="1">
          <mxGeometry width="30" height="30" as="geometry">
            <mxRectangle width="30" height="30" as="alternateBounds" />
          </mxGeometry>
        </mxCell>
        <mxCell id="kqVs6nVT71hv-M2BMfZQ-311" value="&lt;span style=&quot;text-align: center; text-wrap: nowrap;&quot;&gt;photo_id&lt;/span&gt;" style="shape=partialRectangle;connectable=0;fillColor=#FFFFFF;top=0;left=0;bottom=0;right=0;align=left;spacingLeft=6;fontStyle=5;overflow=hidden;whiteSpace=wrap;html=1;" parent="kqVs6nVT71hv-M2BMfZQ-309" vertex="1">
          <mxGeometry x="30" width="150" height="30" as="geometry">
            <mxRectangle width="150" height="30" as="alternateBounds" />
          </mxGeometry>
        </mxCell>
        <mxCell id="kqVs6nVT71hv-M2BMfZQ-312" value="" style="shape=tableRow;horizontal=0;startSize=0;swimlaneHead=0;swimlaneBody=0;fillColor=#FFFFFF;collapsible=0;dropTarget=0;points=[[0,0.5],[1,0.5]];portConstraint=eastwest;top=0;left=0;right=0;bottom=0;" parent="kqVs6nVT71hv-M2BMfZQ-308" vertex="1">
          <mxGeometry y="60" width="180" height="30" as="geometry" />
        </mxCell>
        <mxCell id="kqVs6nVT71hv-M2BMfZQ-313" value="" style="shape=partialRectangle;connectable=0;fillColor=#FFFFFF;top=0;left=0;bottom=0;right=0;editable=1;overflow=hidden;whiteSpace=wrap;html=1;" parent="kqVs6nVT71hv-M2BMfZQ-312" vertex="1">
          <mxGeometry width="30" height="30" as="geometry">
            <mxRectangle width="30" height="30" as="alternateBounds" />
          </mxGeometry>
        </mxCell>
        <mxCell id="kqVs6nVT71hv-M2BMfZQ-314" value="photo" style="shape=partialRectangle;connectable=0;fillColor=#FFFFFF;top=0;left=0;bottom=0;right=0;align=left;spacingLeft=6;overflow=hidden;whiteSpace=wrap;html=1;" parent="kqVs6nVT71hv-M2BMfZQ-312" vertex="1">
          <mxGeometry x="30" width="150" height="30" as="geometry">
            <mxRectangle width="150" height="30" as="alternateBounds" />
          </mxGeometry>
        </mxCell>
        <mxCell id="IJi7_sDKVSXKfqmQZ_vw-231" value="status_panier" style="shape=table;startSize=30;container=1;collapsible=1;childLayout=tableLayout;fixedRows=1;rowLines=0;fontStyle=1;align=center;resizeLast=1;html=1;fillColor=#CCE5FF;" parent="1" vertex="1">
          <mxGeometry x="470" y="330" width="180" height="90" as="geometry" />
        </mxCell>
        <mxCell id="IJi7_sDKVSXKfqmQZ_vw-232" value="" style="shape=tableRow;horizontal=0;startSize=0;swimlaneHead=0;swimlaneBody=0;fillColor=#FFFFFF;collapsible=0;dropTarget=0;points=[[0,0.5],[1,0.5]];portConstraint=eastwest;top=0;left=0;right=0;bottom=1;" parent="IJi7_sDKVSXKfqmQZ_vw-231" vertex="1">
          <mxGeometry y="30" width="180" height="30" as="geometry" />
        </mxCell>
        <mxCell id="IJi7_sDKVSXKfqmQZ_vw-233" value="PK" style="shape=partialRectangle;connectable=0;fillColor=#FFFFFF;top=0;left=0;bottom=0;right=0;fontStyle=1;overflow=hidden;whiteSpace=wrap;html=1;" parent="IJi7_sDKVSXKfqmQZ_vw-232" vertex="1">
          <mxGeometry width="30" height="30" as="geometry">
            <mxRectangle width="30" height="30" as="alternateBounds" />
          </mxGeometry>
        </mxCell>
        <mxCell id="IJi7_sDKVSXKfqmQZ_vw-234" value="status_id" style="shape=partialRectangle;connectable=0;fillColor=#FFFFFF;top=0;left=0;bottom=0;right=0;align=left;spacingLeft=6;fontStyle=5;overflow=hidden;whiteSpace=wrap;html=1;" parent="IJi7_sDKVSXKfqmQZ_vw-232" vertex="1">
          <mxGeometry x="30" width="150" height="30" as="geometry">
            <mxRectangle width="150" height="30" as="alternateBounds" />
          </mxGeometry>
        </mxCell>
        <mxCell id="IJi7_sDKVSXKfqmQZ_vw-235" value="" style="shape=tableRow;horizontal=0;startSize=0;swimlaneHead=0;swimlaneBody=0;fillColor=#FFFFFF;collapsible=0;dropTarget=0;points=[[0,0.5],[1,0.5]];portConstraint=eastwest;top=0;left=0;right=0;bottom=0;" parent="IJi7_sDKVSXKfqmQZ_vw-231" vertex="1">
          <mxGeometry y="60" width="180" height="30" as="geometry" />
        </mxCell>
        <mxCell id="IJi7_sDKVSXKfqmQZ_vw-236" value="" style="shape=partialRectangle;connectable=0;fillColor=#FFFFFF;top=0;left=0;bottom=0;right=0;editable=1;overflow=hidden;whiteSpace=wrap;html=1;" parent="IJi7_sDKVSXKfqmQZ_vw-235" vertex="1">
          <mxGeometry width="30" height="30" as="geometry">
            <mxRectangle width="30" height="30" as="alternateBounds" />
          </mxGeometry>
        </mxCell>
        <mxCell id="IJi7_sDKVSXKfqmQZ_vw-237" value="description" style="shape=partialRectangle;connectable=0;fillColor=#FFFFFF;top=0;left=0;bottom=0;right=0;align=left;spacingLeft=6;overflow=hidden;whiteSpace=wrap;html=1;" parent="IJi7_sDKVSXKfqmQZ_vw-235" vertex="1">
          <mxGeometry x="30" width="150" height="30" as="geometry">
            <mxRectangle width="150" height="30" as="alternateBounds" />
          </mxGeometry>
        </mxCell>
        <mxCell id="IJi7_sDKVSXKfqmQZ_vw-240" value="commande_status" style="shape=table;startSize=30;container=1;collapsible=1;childLayout=tableLayout;fixedRows=1;rowLines=0;fontStyle=1;align=center;resizeLast=1;html=1;fillColor=#CCE5FF;" parent="1" vertex="1">
          <mxGeometry x="460" y="60" width="180" height="90" as="geometry" />
        </mxCell>
        <mxCell id="IJi7_sDKVSXKfqmQZ_vw-241" value="" style="shape=tableRow;horizontal=0;startSize=0;swimlaneHead=0;swimlaneBody=0;fillColor=#FFFFFF;collapsible=0;dropTarget=0;points=[[0,0.5],[1,0.5]];portConstraint=eastwest;top=0;left=0;right=0;bottom=1;" parent="IJi7_sDKVSXKfqmQZ_vw-240" vertex="1">
          <mxGeometry y="30" width="180" height="30" as="geometry" />
        </mxCell>
        <mxCell id="IJi7_sDKVSXKfqmQZ_vw-242" value="PK" style="shape=partialRectangle;connectable=0;fillColor=#FFFFFF;top=0;left=0;bottom=0;right=0;fontStyle=1;overflow=hidden;whiteSpace=wrap;html=1;" parent="IJi7_sDKVSXKfqmQZ_vw-241" vertex="1">
          <mxGeometry width="30" height="30" as="geometry">
            <mxRectangle width="30" height="30" as="alternateBounds" />
          </mxGeometry>
        </mxCell>
        <mxCell id="IJi7_sDKVSXKfqmQZ_vw-243" value="status_id" style="shape=partialRectangle;connectable=0;fillColor=#FFFFFF;top=0;left=0;bottom=0;right=0;align=left;spacingLeft=6;fontStyle=5;overflow=hidden;whiteSpace=wrap;html=1;" parent="IJi7_sDKVSXKfqmQZ_vw-241" vertex="1">
          <mxGeometry x="30" width="150" height="30" as="geometry">
            <mxRectangle width="150" height="30" as="alternateBounds" />
          </mxGeometry>
        </mxCell>
        <mxCell id="IJi7_sDKVSXKfqmQZ_vw-244" value="" style="shape=tableRow;horizontal=0;startSize=0;swimlaneHead=0;swimlaneBody=0;fillColor=#FFFFFF;collapsible=0;dropTarget=0;points=[[0,0.5],[1,0.5]];portConstraint=eastwest;top=0;left=0;right=0;bottom=0;" parent="IJi7_sDKVSXKfqmQZ_vw-240" vertex="1">
          <mxGeometry y="60" width="180" height="30" as="geometry" />
        </mxCell>
        <mxCell id="IJi7_sDKVSXKfqmQZ_vw-245" value="" style="shape=partialRectangle;connectable=0;fillColor=#FFFFFF;top=0;left=0;bottom=0;right=0;editable=1;overflow=hidden;whiteSpace=wrap;html=1;" parent="IJi7_sDKVSXKfqmQZ_vw-244" vertex="1">
          <mxGeometry width="30" height="30" as="geometry">
            <mxRectangle width="30" height="30" as="alternateBounds" />
          </mxGeometry>
        </mxCell>
        <mxCell id="IJi7_sDKVSXKfqmQZ_vw-246" value="description" style="shape=partialRectangle;connectable=0;fillColor=#FFFFFF;top=0;left=0;bottom=0;right=0;align=left;spacingLeft=6;overflow=hidden;whiteSpace=wrap;html=1;" parent="IJi7_sDKVSXKfqmQZ_vw-244" vertex="1">
          <mxGeometry x="30" width="150" height="30" as="geometry">
            <mxRectangle width="150" height="30" as="alternateBounds" />
          </mxGeometry>
        </mxCell>
        <mxCell id="zKA0qa-9VVPBx98R9BQj-4" value="" style="group;fillColor=#FFFFFF;" parent="1" vertex="1" connectable="0">
          <mxGeometry x="240" y="210" width="180" height="180" as="geometry" />
        </mxCell>
        <mxCell id="kqVs6nVT71hv-M2BMfZQ-127" value="cart" style="shape=table;startSize=30;container=1;collapsible=1;childLayout=tableLayout;fixedRows=1;rowLines=0;fontStyle=1;align=center;resizeLast=1;html=1;fillColor=#CCE5FF;" parent="zKA0qa-9VVPBx98R9BQj-4" vertex="1">
          <mxGeometry width="180" height="180" as="geometry" />
        </mxCell>
        <mxCell id="kqVs6nVT71hv-M2BMfZQ-128" value="" style="shape=tableRow;horizontal=0;startSize=0;swimlaneHead=0;swimlaneBody=0;fillColor=none;collapsible=0;dropTarget=0;points=[[0,0.5],[1,0.5]];portConstraint=eastwest;top=0;left=0;right=0;bottom=1;" parent="kqVs6nVT71hv-M2BMfZQ-127" vertex="1">
          <mxGeometry y="30" width="180" height="30" as="geometry" />
        </mxCell>
        <mxCell id="kqVs6nVT71hv-M2BMfZQ-129" value="PK" style="shape=partialRectangle;connectable=0;fillColor=none;top=0;left=0;bottom=0;right=0;fontStyle=1;overflow=hidden;whiteSpace=wrap;html=1;" parent="kqVs6nVT71hv-M2BMfZQ-128" vertex="1">
          <mxGeometry width="30" height="30" as="geometry">
            <mxRectangle width="30" height="30" as="alternateBounds" />
          </mxGeometry>
        </mxCell>
        <mxCell id="kqVs6nVT71hv-M2BMfZQ-130" value="panier_id" style="shape=partialRectangle;connectable=0;fillColor=none;top=0;left=0;bottom=0;right=0;align=left;spacingLeft=6;fontStyle=5;overflow=hidden;whiteSpace=wrap;html=1;" parent="kqVs6nVT71hv-M2BMfZQ-128" vertex="1">
          <mxGeometry x="30" width="150" height="30" as="geometry">
            <mxRectangle width="150" height="30" as="alternateBounds" />
          </mxGeometry>
        </mxCell>
        <mxCell id="kqVs6nVT71hv-M2BMfZQ-131" value="" style="shape=tableRow;horizontal=0;startSize=0;swimlaneHead=0;swimlaneBody=0;fillColor=none;collapsible=0;dropTarget=0;points=[[0,0.5],[1,0.5]];portConstraint=eastwest;top=0;left=0;right=0;bottom=0;" parent="kqVs6nVT71hv-M2BMfZQ-127" vertex="1">
          <mxGeometry y="60" width="180" height="30" as="geometry" />
        </mxCell>
        <mxCell id="kqVs6nVT71hv-M2BMfZQ-132" value="" style="shape=partialRectangle;connectable=0;fillColor=none;top=0;left=0;bottom=0;right=0;editable=1;overflow=hidden;whiteSpace=wrap;html=1;" parent="kqVs6nVT71hv-M2BMfZQ-131" vertex="1">
          <mxGeometry width="30" height="30" as="geometry">
            <mxRectangle width="30" height="30" as="alternateBounds" />
          </mxGeometry>
        </mxCell>
        <mxCell id="kqVs6nVT71hv-M2BMfZQ-133" value="client_id" style="shape=partialRectangle;connectable=0;fillColor=none;top=0;left=0;bottom=0;right=0;align=left;spacingLeft=6;overflow=hidden;whiteSpace=wrap;html=1;" parent="kqVs6nVT71hv-M2BMfZQ-131" vertex="1">
          <mxGeometry x="30" width="150" height="30" as="geometry">
            <mxRectangle width="150" height="30" as="alternateBounds" />
          </mxGeometry>
        </mxCell>
        <mxCell id="kqVs6nVT71hv-M2BMfZQ-134" value="" style="shape=tableRow;horizontal=0;startSize=0;swimlaneHead=0;swimlaneBody=0;fillColor=none;collapsible=0;dropTarget=0;points=[[0,0.5],[1,0.5]];portConstraint=eastwest;top=0;left=0;right=0;bottom=0;" parent="kqVs6nVT71hv-M2BMfZQ-127" vertex="1">
          <mxGeometry y="90" width="180" height="30" as="geometry" />
        </mxCell>
        <mxCell id="kqVs6nVT71hv-M2BMfZQ-135" value="" style="shape=partialRectangle;connectable=0;fillColor=none;top=0;left=0;bottom=0;right=0;editable=1;overflow=hidden;whiteSpace=wrap;html=1;" parent="kqVs6nVT71hv-M2BMfZQ-134" vertex="1">
          <mxGeometry width="30" height="30" as="geometry">
            <mxRectangle width="30" height="30" as="alternateBounds" />
          </mxGeometry>
        </mxCell>
        <mxCell id="kqVs6nVT71hv-M2BMfZQ-136" value="montant" style="shape=partialRectangle;connectable=0;fillColor=none;top=0;left=0;bottom=0;right=0;align=left;spacingLeft=6;overflow=hidden;whiteSpace=wrap;html=1;" parent="kqVs6nVT71hv-M2BMfZQ-134" vertex="1">
          <mxGeometry x="30" width="150" height="30" as="geometry">
            <mxRectangle width="150" height="30" as="alternateBounds" />
          </mxGeometry>
        </mxCell>
        <mxCell id="kqVs6nVT71hv-M2BMfZQ-137" value="" style="shape=tableRow;horizontal=0;startSize=0;swimlaneHead=0;swimlaneBody=0;fillColor=none;collapsible=0;dropTarget=0;points=[[0,0.5],[1,0.5]];portConstraint=eastwest;top=0;left=0;right=0;bottom=0;" parent="kqVs6nVT71hv-M2BMfZQ-127" vertex="1">
          <mxGeometry y="120" width="180" height="30" as="geometry" />
        </mxCell>
        <mxCell id="kqVs6nVT71hv-M2BMfZQ-138" value="" style="shape=partialRectangle;connectable=0;fillColor=none;top=0;left=0;bottom=0;right=0;editable=1;overflow=hidden;whiteSpace=wrap;html=1;" parent="kqVs6nVT71hv-M2BMfZQ-137" vertex="1">
          <mxGeometry width="30" height="30" as="geometry">
            <mxRectangle width="30" height="30" as="alternateBounds" />
          </mxGeometry>
        </mxCell>
        <mxCell id="kqVs6nVT71hv-M2BMfZQ-139" value="date_creation" style="shape=partialRectangle;connectable=0;fillColor=none;top=0;left=0;bottom=0;right=0;align=left;spacingLeft=6;overflow=hidden;whiteSpace=wrap;html=1;" parent="kqVs6nVT71hv-M2BMfZQ-137" vertex="1">
          <mxGeometry x="30" width="150" height="30" as="geometry">
            <mxRectangle width="150" height="30" as="alternateBounds" />
          </mxGeometry>
        </mxCell>
        <mxCell id="kqVs6nVT71hv-M2BMfZQ-143" style="shape=tableRow;horizontal=0;startSize=0;swimlaneHead=0;swimlaneBody=0;fillColor=none;collapsible=0;dropTarget=0;points=[[0,0.5],[1,0.5]];portConstraint=eastwest;top=0;left=0;right=0;bottom=0;" parent="kqVs6nVT71hv-M2BMfZQ-127" vertex="1">
          <mxGeometry y="150" width="180" height="30" as="geometry" />
        </mxCell>
        <mxCell id="kqVs6nVT71hv-M2BMfZQ-144" style="shape=partialRectangle;connectable=0;fillColor=none;top=0;left=0;bottom=0;right=0;editable=1;overflow=hidden;whiteSpace=wrap;html=1;" parent="kqVs6nVT71hv-M2BMfZQ-143" vertex="1">
          <mxGeometry width="30" height="30" as="geometry">
            <mxRectangle width="30" height="30" as="alternateBounds" />
          </mxGeometry>
        </mxCell>
        <mxCell id="kqVs6nVT71hv-M2BMfZQ-145" value="status_id" style="shape=partialRectangle;connectable=0;fillColor=none;top=0;left=0;bottom=0;right=0;align=left;spacingLeft=6;overflow=hidden;whiteSpace=wrap;html=1;" parent="kqVs6nVT71hv-M2BMfZQ-143" vertex="1">
          <mxGeometry x="30" width="150" height="30" as="geometry">
            <mxRectangle width="150" height="30" as="alternateBounds" />
          </mxGeometry>
        </mxCell>
        <mxCell id="IJi7_sDKVSXKfqmQZ_vw-180" value="FK" style="shape=partialRectangle;connectable=0;fillColor=none;top=0;left=0;bottom=0;right=0;fontStyle=1;overflow=hidden;whiteSpace=wrap;html=1;" parent="zKA0qa-9VVPBx98R9BQj-4" vertex="1">
          <mxGeometry y="60" width="30" height="30" as="geometry">
            <mxRectangle width="30" height="30" as="alternateBounds" />
          </mxGeometry>
        </mxCell>
        <mxCell id="IJi7_sDKVSXKfqmQZ_vw-181" value="FK" style="shape=partialRectangle;connectable=0;fillColor=none;top=0;left=0;bottom=0;right=0;fontStyle=1;overflow=hidden;whiteSpace=wrap;html=1;" parent="zKA0qa-9VVPBx98R9BQj-4" vertex="1">
          <mxGeometry y="150" width="30" height="30" as="geometry">
            <mxRectangle width="30" height="30" as="alternateBounds" />
          </mxGeometry>
        </mxCell>
        <mxCell id="zKA0qa-9VVPBx98R9BQj-5" value="" style="group" parent="1" vertex="1" connectable="0">
          <mxGeometry x="-590" y="230" width="180" height="180" as="geometry" />
        </mxCell>
        <mxCell id="kqVs6nVT71hv-M2BMfZQ-292" value="rate" style="shape=table;startSize=30;container=1;collapsible=1;childLayout=tableLayout;fixedRows=1;rowLines=0;fontStyle=1;align=center;resizeLast=1;html=1;fillColor=#CCE5FF;" parent="zKA0qa-9VVPBx98R9BQj-5" vertex="1">
          <mxGeometry width="180" height="180" as="geometry" />
        </mxCell>
        <mxCell id="kqVs6nVT71hv-M2BMfZQ-293" value="" style="shape=tableRow;horizontal=0;startSize=0;swimlaneHead=0;swimlaneBody=0;fillColor=#FFFFFF;collapsible=0;dropTarget=0;points=[[0,0.5],[1,0.5]];portConstraint=eastwest;top=0;left=0;right=0;bottom=1;" parent="kqVs6nVT71hv-M2BMfZQ-292" vertex="1">
          <mxGeometry y="30" width="180" height="30" as="geometry" />
        </mxCell>
        <mxCell id="kqVs6nVT71hv-M2BMfZQ-294" value="PK" style="shape=partialRectangle;connectable=0;fillColor=#FFFFFF;top=0;left=0;bottom=0;right=0;fontStyle=1;overflow=hidden;whiteSpace=wrap;html=1;" parent="kqVs6nVT71hv-M2BMfZQ-293" vertex="1">
          <mxGeometry width="30" height="30" as="geometry">
            <mxRectangle width="30" height="30" as="alternateBounds" />
          </mxGeometry>
        </mxCell>
        <mxCell id="kqVs6nVT71hv-M2BMfZQ-295" value="&lt;span style=&quot;text-align: center; text-wrap: nowrap;&quot;&gt;evaluation_id&lt;/span&gt;" style="shape=partialRectangle;connectable=0;fillColor=#FFFFFF;top=0;left=0;bottom=0;right=0;align=left;spacingLeft=6;fontStyle=5;overflow=hidden;whiteSpace=wrap;html=1;" parent="kqVs6nVT71hv-M2BMfZQ-293" vertex="1">
          <mxGeometry x="30" width="150" height="30" as="geometry">
            <mxRectangle width="150" height="30" as="alternateBounds" />
          </mxGeometry>
        </mxCell>
        <mxCell id="kqVs6nVT71hv-M2BMfZQ-296" value="" style="shape=tableRow;horizontal=0;startSize=0;swimlaneHead=0;swimlaneBody=0;fillColor=#FFFFFF;collapsible=0;dropTarget=0;points=[[0,0.5],[1,0.5]];portConstraint=eastwest;top=0;left=0;right=0;bottom=0;" parent="kqVs6nVT71hv-M2BMfZQ-292" vertex="1">
          <mxGeometry y="60" width="180" height="30" as="geometry" />
        </mxCell>
        <mxCell id="kqVs6nVT71hv-M2BMfZQ-297" value="" style="shape=partialRectangle;connectable=0;fillColor=#FFFFFF;top=0;left=0;bottom=0;right=0;editable=1;overflow=hidden;whiteSpace=wrap;html=1;" parent="kqVs6nVT71hv-M2BMfZQ-296" vertex="1">
          <mxGeometry width="30" height="30" as="geometry">
            <mxRectangle width="30" height="30" as="alternateBounds" />
          </mxGeometry>
        </mxCell>
        <mxCell id="kqVs6nVT71hv-M2BMfZQ-298" value="client_id" style="shape=partialRectangle;connectable=0;fillColor=#FFFFFF;top=0;left=0;bottom=0;right=0;align=left;spacingLeft=6;overflow=hidden;whiteSpace=wrap;html=1;" parent="kqVs6nVT71hv-M2BMfZQ-296" vertex="1">
          <mxGeometry x="30" width="150" height="30" as="geometry">
            <mxRectangle width="150" height="30" as="alternateBounds" />
          </mxGeometry>
        </mxCell>
        <mxCell id="kqVs6nVT71hv-M2BMfZQ-299" style="shape=tableRow;horizontal=0;startSize=0;swimlaneHead=0;swimlaneBody=0;fillColor=#FFFFFF;collapsible=0;dropTarget=0;points=[[0,0.5],[1,0.5]];portConstraint=eastwest;top=0;left=0;right=0;bottom=0;" parent="kqVs6nVT71hv-M2BMfZQ-292" vertex="1">
          <mxGeometry y="90" width="180" height="30" as="geometry" />
        </mxCell>
        <mxCell id="kqVs6nVT71hv-M2BMfZQ-300" style="shape=partialRectangle;connectable=0;fillColor=#FFFFFF;top=0;left=0;bottom=0;right=0;editable=1;overflow=hidden;whiteSpace=wrap;html=1;" parent="kqVs6nVT71hv-M2BMfZQ-299" vertex="1">
          <mxGeometry width="30" height="30" as="geometry">
            <mxRectangle width="30" height="30" as="alternateBounds" />
          </mxGeometry>
        </mxCell>
        <mxCell id="kqVs6nVT71hv-M2BMfZQ-301" value="commentaire" style="shape=partialRectangle;connectable=0;fillColor=#FFFFFF;top=0;left=0;bottom=0;right=0;align=left;spacingLeft=6;overflow=hidden;whiteSpace=wrap;html=1;" parent="kqVs6nVT71hv-M2BMfZQ-299" vertex="1">
          <mxGeometry x="30" width="150" height="30" as="geometry">
            <mxRectangle width="150" height="30" as="alternateBounds" />
          </mxGeometry>
        </mxCell>
        <mxCell id="kqVs6nVT71hv-M2BMfZQ-302" style="shape=tableRow;horizontal=0;startSize=0;swimlaneHead=0;swimlaneBody=0;fillColor=#FFFFFF;collapsible=0;dropTarget=0;points=[[0,0.5],[1,0.5]];portConstraint=eastwest;top=0;left=0;right=0;bottom=0;" parent="kqVs6nVT71hv-M2BMfZQ-292" vertex="1">
          <mxGeometry y="120" width="180" height="30" as="geometry" />
        </mxCell>
        <mxCell id="kqVs6nVT71hv-M2BMfZQ-303" style="shape=partialRectangle;connectable=0;fillColor=#FFFFFF;top=0;left=0;bottom=0;right=0;editable=1;overflow=hidden;whiteSpace=wrap;html=1;" parent="kqVs6nVT71hv-M2BMfZQ-302" vertex="1">
          <mxGeometry width="30" height="30" as="geometry">
            <mxRectangle width="30" height="30" as="alternateBounds" />
          </mxGeometry>
        </mxCell>
        <mxCell id="kqVs6nVT71hv-M2BMfZQ-304" value="note" style="shape=partialRectangle;connectable=0;fillColor=#FFFFFF;top=0;left=0;bottom=0;right=0;align=left;spacingLeft=6;overflow=hidden;whiteSpace=wrap;html=1;" parent="kqVs6nVT71hv-M2BMfZQ-302" vertex="1">
          <mxGeometry x="30" width="150" height="30" as="geometry">
            <mxRectangle width="150" height="30" as="alternateBounds" />
          </mxGeometry>
        </mxCell>
        <mxCell id="IJi7_sDKVSXKfqmQZ_vw-171" style="shape=tableRow;horizontal=0;startSize=0;swimlaneHead=0;swimlaneBody=0;fillColor=#FFFFFF;collapsible=0;dropTarget=0;points=[[0,0.5],[1,0.5]];portConstraint=eastwest;top=0;left=0;right=0;bottom=0;" parent="kqVs6nVT71hv-M2BMfZQ-292" vertex="1">
          <mxGeometry y="150" width="180" height="30" as="geometry" />
        </mxCell>
        <mxCell id="IJi7_sDKVSXKfqmQZ_vw-172" style="shape=partialRectangle;connectable=0;fillColor=#FFFFFF;top=0;left=0;bottom=0;right=0;editable=1;overflow=hidden;whiteSpace=wrap;html=1;" parent="IJi7_sDKVSXKfqmQZ_vw-171" vertex="1">
          <mxGeometry width="30" height="30" as="geometry">
            <mxRectangle width="30" height="30" as="alternateBounds" />
          </mxGeometry>
        </mxCell>
        <mxCell id="IJi7_sDKVSXKfqmQZ_vw-173" value="produit_id" style="shape=partialRectangle;connectable=0;fillColor=#FFFFFF;top=0;left=0;bottom=0;right=0;align=left;spacingLeft=6;overflow=hidden;whiteSpace=wrap;html=1;" parent="IJi7_sDKVSXKfqmQZ_vw-171" vertex="1">
          <mxGeometry x="30" width="150" height="30" as="geometry">
            <mxRectangle width="150" height="30" as="alternateBounds" />
          </mxGeometry>
        </mxCell>
        <mxCell id="IJi7_sDKVSXKfqmQZ_vw-247" value="FK" style="shape=partialRectangle;connectable=0;fillColor=#FFFFFF;top=0;left=0;bottom=0;right=0;fontStyle=1;overflow=hidden;whiteSpace=wrap;html=1;" parent="zKA0qa-9VVPBx98R9BQj-5" vertex="1">
          <mxGeometry y="60" width="30" height="30" as="geometry">
            <mxRectangle width="30" height="30" as="alternateBounds" />
          </mxGeometry>
        </mxCell>
        <mxCell id="IJi7_sDKVSXKfqmQZ_vw-248" value="FK" style="shape=partialRectangle;connectable=0;fillColor=#FFFFFF;top=0;left=0;bottom=0;right=0;fontStyle=1;overflow=hidden;whiteSpace=wrap;html=1;" parent="zKA0qa-9VVPBx98R9BQj-5" vertex="1">
          <mxGeometry y="150" width="30" height="30" as="geometry">
            <mxRectangle width="30" height="30" as="alternateBounds" />
          </mxGeometry>
        </mxCell>
        <mxCell id="zKA0qa-9VVPBx98R9BQj-6" value="" style="group" parent="1" vertex="1" connectable="0">
          <mxGeometry x="190" y="430" width="180" height="120" as="geometry" />
        </mxCell>
        <mxCell id="IJi7_sDKVSXKfqmQZ_vw-194" value="content_&lt;span style=&quot;background-color: initial;&quot;&gt;product&lt;/span&gt;" style="shape=table;startSize=30;container=1;collapsible=1;childLayout=tableLayout;fixedRows=1;rowLines=0;fontStyle=1;align=center;resizeLast=1;html=1;fillColor=#CCE5FF;" parent="zKA0qa-9VVPBx98R9BQj-6" vertex="1">
          <mxGeometry width="180" height="120" as="geometry" />
        </mxCell>
        <mxCell id="IJi7_sDKVSXKfqmQZ_vw-195" value="" style="shape=tableRow;horizontal=0;startSize=0;swimlaneHead=0;swimlaneBody=0;fillColor=#FFFFFF;collapsible=0;dropTarget=0;points=[[0,0.5],[1,0.5]];portConstraint=eastwest;top=0;left=0;right=0;bottom=1;" parent="IJi7_sDKVSXKfqmQZ_vw-194" vertex="1">
          <mxGeometry y="30" width="180" height="30" as="geometry" />
        </mxCell>
        <mxCell id="IJi7_sDKVSXKfqmQZ_vw-196" value="" style="shape=partialRectangle;connectable=0;fillColor=#FFFFFF;top=0;left=0;bottom=0;right=0;fontStyle=1;overflow=hidden;whiteSpace=wrap;html=1;" parent="IJi7_sDKVSXKfqmQZ_vw-195" vertex="1">
          <mxGeometry width="60" height="30" as="geometry">
            <mxRectangle width="60" height="30" as="alternateBounds" />
          </mxGeometry>
        </mxCell>
        <mxCell id="IJi7_sDKVSXKfqmQZ_vw-197" value="&lt;span style=&quot;text-align: center; text-wrap: nowrap;&quot;&gt;panier_id&lt;/span&gt;" style="shape=partialRectangle;connectable=0;fillColor=#FFFFFF;top=0;left=0;bottom=0;right=0;align=left;spacingLeft=6;fontStyle=5;overflow=hidden;whiteSpace=wrap;html=1;" parent="IJi7_sDKVSXKfqmQZ_vw-195" vertex="1">
          <mxGeometry x="60" width="120" height="30" as="geometry">
            <mxRectangle width="120" height="30" as="alternateBounds" />
          </mxGeometry>
        </mxCell>
        <mxCell id="IJi7_sDKVSXKfqmQZ_vw-198" value="" style="shape=tableRow;horizontal=0;startSize=0;swimlaneHead=0;swimlaneBody=0;fillColor=#FFFFFF;collapsible=0;dropTarget=0;points=[[0,0.5],[1,0.5]];portConstraint=eastwest;top=0;left=0;right=0;bottom=0;" parent="IJi7_sDKVSXKfqmQZ_vw-194" vertex="1">
          <mxGeometry y="60" width="180" height="30" as="geometry" />
        </mxCell>
        <mxCell id="IJi7_sDKVSXKfqmQZ_vw-199" value="" style="shape=partialRectangle;connectable=0;fillColor=#FFFFFF;top=0;left=0;bottom=0;right=0;editable=1;overflow=hidden;whiteSpace=wrap;html=1;" parent="IJi7_sDKVSXKfqmQZ_vw-198" vertex="1">
          <mxGeometry width="60" height="30" as="geometry">
            <mxRectangle width="60" height="30" as="alternateBounds" />
          </mxGeometry>
        </mxCell>
        <mxCell id="IJi7_sDKVSXKfqmQZ_vw-200" value="&lt;u&gt;&lt;b&gt;produit_id&lt;/b&gt;&lt;/u&gt;" style="shape=partialRectangle;connectable=0;fillColor=#FFFFFF;top=0;left=0;bottom=0;right=0;align=left;spacingLeft=6;overflow=hidden;whiteSpace=wrap;html=1;" parent="IJi7_sDKVSXKfqmQZ_vw-198" vertex="1">
          <mxGeometry x="60" width="120" height="30" as="geometry">
            <mxRectangle width="120" height="30" as="alternateBounds" />
          </mxGeometry>
        </mxCell>
        <mxCell id="IJi7_sDKVSXKfqmQZ_vw-201" style="shape=tableRow;horizontal=0;startSize=0;swimlaneHead=0;swimlaneBody=0;fillColor=#FFFFFF;collapsible=0;dropTarget=0;points=[[0,0.5],[1,0.5]];portConstraint=eastwest;top=0;left=0;right=0;bottom=0;" parent="IJi7_sDKVSXKfqmQZ_vw-194" vertex="1">
          <mxGeometry y="90" width="180" height="30" as="geometry" />
        </mxCell>
        <mxCell id="IJi7_sDKVSXKfqmQZ_vw-202" style="shape=partialRectangle;connectable=0;fillColor=#FFFFFF;top=0;left=0;bottom=0;right=0;editable=1;overflow=hidden;whiteSpace=wrap;html=1;" parent="IJi7_sDKVSXKfqmQZ_vw-201" vertex="1">
          <mxGeometry width="60" height="30" as="geometry">
            <mxRectangle width="60" height="30" as="alternateBounds" />
          </mxGeometry>
        </mxCell>
        <mxCell id="IJi7_sDKVSXKfqmQZ_vw-203" value="quantite" style="shape=partialRectangle;connectable=0;fillColor=#FFFFFF;top=0;left=0;bottom=0;right=0;align=left;spacingLeft=6;overflow=hidden;whiteSpace=wrap;html=1;" parent="IJi7_sDKVSXKfqmQZ_vw-201" vertex="1">
          <mxGeometry x="60" width="120" height="30" as="geometry">
            <mxRectangle width="120" height="30" as="alternateBounds" />
          </mxGeometry>
        </mxCell>
        <mxCell id="IJi7_sDKVSXKfqmQZ_vw-210" value="PK" style="shape=partialRectangle;connectable=0;fillColor=#FFFFFF;top=0;left=0;bottom=0;right=0;fontStyle=1;overflow=hidden;whiteSpace=wrap;html=1;" parent="zKA0qa-9VVPBx98R9BQj-6" vertex="1">
          <mxGeometry y="60" width="30" height="30" as="geometry">
            <mxRectangle width="30" height="30" as="alternateBounds" />
          </mxGeometry>
        </mxCell>
        <mxCell id="IJi7_sDKVSXKfqmQZ_vw-211" value="PK" style="shape=partialRectangle;connectable=0;fillColor=#FFFFFF;top=0;left=0;bottom=0;right=0;fontStyle=1;overflow=hidden;whiteSpace=wrap;html=1;" parent="zKA0qa-9VVPBx98R9BQj-6" vertex="1">
          <mxGeometry y="30" width="30" height="30" as="geometry">
            <mxRectangle width="30" height="30" as="alternateBounds" />
          </mxGeometry>
        </mxCell>
        <mxCell id="IJi7_sDKVSXKfqmQZ_vw-212" value="FK" style="shape=partialRectangle;connectable=0;fillColor=#FFFFFF;top=0;left=0;bottom=0;right=0;fontStyle=1;overflow=hidden;whiteSpace=wrap;html=1;" parent="zKA0qa-9VVPBx98R9BQj-6" vertex="1">
          <mxGeometry x="30" y="30" width="30" height="30" as="geometry">
            <mxRectangle width="30" height="30" as="alternateBounds" />
          </mxGeometry>
        </mxCell>
        <mxCell id="IJi7_sDKVSXKfqmQZ_vw-213" value="FK" style="shape=partialRectangle;connectable=0;fillColor=#FFFFFF;top=0;left=0;bottom=0;right=0;fontStyle=1;overflow=hidden;whiteSpace=wrap;html=1;" parent="zKA0qa-9VVPBx98R9BQj-6" vertex="1">
          <mxGeometry x="30" y="60" width="30" height="30" as="geometry">
            <mxRectangle width="30" height="30" as="alternateBounds" />
          </mxGeometry>
        </mxCell>
        <mxCell id="zKA0qa-9VVPBx98R9BQj-8" value="" style="group" parent="1" vertex="1" connectable="0">
          <mxGeometry x="150" y="-30" width="180" height="210" as="geometry" />
        </mxCell>
        <mxCell id="kqVs6nVT71hv-M2BMfZQ-149" value="command" style="shape=table;startSize=30;container=1;collapsible=1;childLayout=tableLayout;fixedRows=1;rowLines=0;fontStyle=1;align=center;resizeLast=1;html=1;fillColor=#CCE5FF;" parent="zKA0qa-9VVPBx98R9BQj-8" vertex="1">
          <mxGeometry width="180" height="210" as="geometry" />
        </mxCell>
        <mxCell id="kqVs6nVT71hv-M2BMfZQ-150" value="" style="shape=tableRow;horizontal=0;startSize=0;swimlaneHead=0;swimlaneBody=0;fillColor=#FFFFFF;collapsible=0;dropTarget=0;points=[[0,0.5],[1,0.5]];portConstraint=eastwest;top=0;left=0;right=0;bottom=1;" parent="kqVs6nVT71hv-M2BMfZQ-149" vertex="1">
          <mxGeometry y="30" width="180" height="30" as="geometry" />
        </mxCell>
        <mxCell id="kqVs6nVT71hv-M2BMfZQ-151" value="PK" style="shape=partialRectangle;connectable=0;fillColor=#FFFFFF;top=0;left=0;bottom=0;right=0;fontStyle=1;overflow=hidden;whiteSpace=wrap;html=1;" parent="kqVs6nVT71hv-M2BMfZQ-150" vertex="1">
          <mxGeometry width="30" height="30" as="geometry">
            <mxRectangle width="30" height="30" as="alternateBounds" />
          </mxGeometry>
        </mxCell>
        <mxCell id="kqVs6nVT71hv-M2BMfZQ-152" value="commande_id" style="shape=partialRectangle;connectable=0;fillColor=#FFFFFF;top=0;left=0;bottom=0;right=0;align=left;spacingLeft=6;fontStyle=5;overflow=hidden;whiteSpace=wrap;html=1;" parent="kqVs6nVT71hv-M2BMfZQ-150" vertex="1">
          <mxGeometry x="30" width="150" height="30" as="geometry">
            <mxRectangle width="150" height="30" as="alternateBounds" />
          </mxGeometry>
        </mxCell>
        <mxCell id="kqVs6nVT71hv-M2BMfZQ-153" value="" style="shape=tableRow;horizontal=0;startSize=0;swimlaneHead=0;swimlaneBody=0;fillColor=#FFFFFF;collapsible=0;dropTarget=0;points=[[0,0.5],[1,0.5]];portConstraint=eastwest;top=0;left=0;right=0;bottom=0;" parent="kqVs6nVT71hv-M2BMfZQ-149" vertex="1">
          <mxGeometry y="60" width="180" height="30" as="geometry" />
        </mxCell>
        <mxCell id="kqVs6nVT71hv-M2BMfZQ-154" value="" style="shape=partialRectangle;connectable=0;fillColor=#FFFFFF;top=0;left=0;bottom=0;right=0;editable=1;overflow=hidden;whiteSpace=wrap;html=1;" parent="kqVs6nVT71hv-M2BMfZQ-153" vertex="1">
          <mxGeometry width="30" height="30" as="geometry">
            <mxRectangle width="30" height="30" as="alternateBounds" />
          </mxGeometry>
        </mxCell>
        <mxCell id="kqVs6nVT71hv-M2BMfZQ-155" value="client_id" style="shape=partialRectangle;connectable=0;fillColor=#FFFFFF;top=0;left=0;bottom=0;right=0;align=left;spacingLeft=6;overflow=hidden;whiteSpace=wrap;html=1;" parent="kqVs6nVT71hv-M2BMfZQ-153" vertex="1">
          <mxGeometry x="30" width="150" height="30" as="geometry">
            <mxRectangle width="150" height="30" as="alternateBounds" />
          </mxGeometry>
        </mxCell>
        <mxCell id="kqVs6nVT71hv-M2BMfZQ-156" value="" style="shape=tableRow;horizontal=0;startSize=0;swimlaneHead=0;swimlaneBody=0;fillColor=#FFFFFF;collapsible=0;dropTarget=0;points=[[0,0.5],[1,0.5]];portConstraint=eastwest;top=0;left=0;right=0;bottom=0;" parent="kqVs6nVT71hv-M2BMfZQ-149" vertex="1">
          <mxGeometry y="90" width="180" height="30" as="geometry" />
        </mxCell>
        <mxCell id="kqVs6nVT71hv-M2BMfZQ-157" value="" style="shape=partialRectangle;connectable=0;fillColor=#FFFFFF;top=0;left=0;bottom=0;right=0;editable=1;overflow=hidden;whiteSpace=wrap;html=1;" parent="kqVs6nVT71hv-M2BMfZQ-156" vertex="1">
          <mxGeometry width="30" height="30" as="geometry">
            <mxRectangle width="30" height="30" as="alternateBounds" />
          </mxGeometry>
        </mxCell>
        <mxCell id="kqVs6nVT71hv-M2BMfZQ-158" value="montant" style="shape=partialRectangle;connectable=0;fillColor=#FFFFFF;top=0;left=0;bottom=0;right=0;align=left;spacingLeft=6;overflow=hidden;whiteSpace=wrap;html=1;" parent="kqVs6nVT71hv-M2BMfZQ-156" vertex="1">
          <mxGeometry x="30" width="150" height="30" as="geometry">
            <mxRectangle width="150" height="30" as="alternateBounds" />
          </mxGeometry>
        </mxCell>
        <mxCell id="kqVs6nVT71hv-M2BMfZQ-159" value="" style="shape=tableRow;horizontal=0;startSize=0;swimlaneHead=0;swimlaneBody=0;fillColor=#FFFFFF;collapsible=0;dropTarget=0;points=[[0,0.5],[1,0.5]];portConstraint=eastwest;top=0;left=0;right=0;bottom=0;" parent="kqVs6nVT71hv-M2BMfZQ-149" vertex="1">
          <mxGeometry y="120" width="180" height="30" as="geometry" />
        </mxCell>
        <mxCell id="kqVs6nVT71hv-M2BMfZQ-160" value="" style="shape=partialRectangle;connectable=0;fillColor=#FFFFFF;top=0;left=0;bottom=0;right=0;editable=1;overflow=hidden;whiteSpace=wrap;html=1;" parent="kqVs6nVT71hv-M2BMfZQ-159" vertex="1">
          <mxGeometry width="30" height="30" as="geometry">
            <mxRectangle width="30" height="30" as="alternateBounds" />
          </mxGeometry>
        </mxCell>
        <mxCell id="kqVs6nVT71hv-M2BMfZQ-161" value="status_id" style="shape=partialRectangle;connectable=0;fillColor=#FFFFFF;top=0;left=0;bottom=0;right=0;align=left;spacingLeft=6;overflow=hidden;whiteSpace=wrap;html=1;" parent="kqVs6nVT71hv-M2BMfZQ-159" vertex="1">
          <mxGeometry x="30" width="150" height="30" as="geometry">
            <mxRectangle width="150" height="30" as="alternateBounds" />
          </mxGeometry>
        </mxCell>
        <mxCell id="kqVs6nVT71hv-M2BMfZQ-162" style="shape=tableRow;horizontal=0;startSize=0;swimlaneHead=0;swimlaneBody=0;fillColor=#FFFFFF;collapsible=0;dropTarget=0;points=[[0,0.5],[1,0.5]];portConstraint=eastwest;top=0;left=0;right=0;bottom=0;" parent="kqVs6nVT71hv-M2BMfZQ-149" vertex="1">
          <mxGeometry y="150" width="180" height="30" as="geometry" />
        </mxCell>
        <mxCell id="kqVs6nVT71hv-M2BMfZQ-163" style="shape=partialRectangle;connectable=0;fillColor=#FFFFFF;top=0;left=0;bottom=0;right=0;editable=1;overflow=hidden;whiteSpace=wrap;html=1;" parent="kqVs6nVT71hv-M2BMfZQ-162" vertex="1">
          <mxGeometry width="30" height="30" as="geometry">
            <mxRectangle width="30" height="30" as="alternateBounds" />
          </mxGeometry>
        </mxCell>
        <mxCell id="kqVs6nVT71hv-M2BMfZQ-164" value="payement_id" style="shape=partialRectangle;connectable=0;fillColor=#FFFFFF;top=0;left=0;bottom=0;right=0;align=left;spacingLeft=6;overflow=hidden;whiteSpace=wrap;html=1;" parent="kqVs6nVT71hv-M2BMfZQ-162" vertex="1">
          <mxGeometry x="30" width="150" height="30" as="geometry">
            <mxRectangle width="150" height="30" as="alternateBounds" />
          </mxGeometry>
        </mxCell>
        <mxCell id="kqVs6nVT71hv-M2BMfZQ-174" style="shape=tableRow;horizontal=0;startSize=0;swimlaneHead=0;swimlaneBody=0;fillColor=#FFFFFF;collapsible=0;dropTarget=0;points=[[0,0.5],[1,0.5]];portConstraint=eastwest;top=0;left=0;right=0;bottom=0;" parent="kqVs6nVT71hv-M2BMfZQ-149" vertex="1">
          <mxGeometry y="180" width="180" height="30" as="geometry" />
        </mxCell>
        <mxCell id="kqVs6nVT71hv-M2BMfZQ-175" style="shape=partialRectangle;connectable=0;fillColor=#FFFFFF;top=0;left=0;bottom=0;right=0;editable=1;overflow=hidden;whiteSpace=wrap;html=1;" parent="kqVs6nVT71hv-M2BMfZQ-174" vertex="1">
          <mxGeometry width="30" height="30" as="geometry">
            <mxRectangle width="30" height="30" as="alternateBounds" />
          </mxGeometry>
        </mxCell>
        <mxCell id="kqVs6nVT71hv-M2BMfZQ-176" value="date_livraison" style="shape=partialRectangle;connectable=0;fillColor=#FFFFFF;top=0;left=0;bottom=0;right=0;align=left;spacingLeft=6;overflow=hidden;whiteSpace=wrap;html=1;" parent="kqVs6nVT71hv-M2BMfZQ-174" vertex="1">
          <mxGeometry x="30" width="150" height="30" as="geometry">
            <mxRectangle width="150" height="30" as="alternateBounds" />
          </mxGeometry>
        </mxCell>
        <mxCell id="IJi7_sDKVSXKfqmQZ_vw-214" value="FK" style="shape=partialRectangle;connectable=0;fillColor=#FFFFFF;top=0;left=0;bottom=0;right=0;fontStyle=1;overflow=hidden;whiteSpace=wrap;html=1;" parent="zKA0qa-9VVPBx98R9BQj-8" vertex="1">
          <mxGeometry y="60" width="30" height="30" as="geometry">
            <mxRectangle width="30" height="30" as="alternateBounds" />
          </mxGeometry>
        </mxCell>
        <mxCell id="IJi7_sDKVSXKfqmQZ_vw-215" value="FK" style="shape=partialRectangle;connectable=0;fillColor=#FFFFFF;top=0;left=0;bottom=0;right=0;fontStyle=1;overflow=hidden;whiteSpace=wrap;html=1;" parent="zKA0qa-9VVPBx98R9BQj-8" vertex="1">
          <mxGeometry y="120" width="30" height="30" as="geometry">
            <mxRectangle width="30" height="30" as="alternateBounds" />
          </mxGeometry>
        </mxCell>
        <mxCell id="IJi7_sDKVSXKfqmQZ_vw-216" value="FK" style="shape=partialRectangle;connectable=0;fillColor=#FFFFFF;top=0;left=0;bottom=0;right=0;fontStyle=1;overflow=hidden;whiteSpace=wrap;html=1;" parent="zKA0qa-9VVPBx98R9BQj-8" vertex="1">
          <mxGeometry y="150" width="30" height="30" as="geometry">
            <mxRectangle width="30" height="30" as="alternateBounds" />
          </mxGeometry>
        </mxCell>
        <mxCell id="zKA0qa-9VVPBx98R9BQj-9" value="" style="group" parent="1" vertex="1" connectable="0">
          <mxGeometry x="-380" y="-50" width="180" height="300" as="geometry" />
        </mxCell>
        <mxCell id="kqVs6nVT71hv-M2BMfZQ-77" value="adress" style="shape=table;startSize=30;container=1;collapsible=1;childLayout=tableLayout;fixedRows=1;rowLines=0;fontStyle=1;align=center;resizeLast=1;html=1;fillColor=#CCE5FF;" parent="zKA0qa-9VVPBx98R9BQj-9" vertex="1">
          <mxGeometry width="180" height="300" as="geometry" />
        </mxCell>
        <mxCell id="kqVs6nVT71hv-M2BMfZQ-78" value="" style="shape=tableRow;horizontal=0;startSize=0;swimlaneHead=0;swimlaneBody=0;fillColor=#FFFFFF;collapsible=0;dropTarget=0;points=[[0,0.5],[1,0.5]];portConstraint=eastwest;top=0;left=0;right=0;bottom=1;" parent="kqVs6nVT71hv-M2BMfZQ-77" vertex="1">
          <mxGeometry y="30" width="180" height="30" as="geometry" />
        </mxCell>
        <mxCell id="kqVs6nVT71hv-M2BMfZQ-79" value="PK" style="shape=partialRectangle;connectable=0;fillColor=#FFFFFF;top=0;left=0;bottom=0;right=0;fontStyle=1;overflow=hidden;whiteSpace=wrap;html=1;" parent="kqVs6nVT71hv-M2BMfZQ-78" vertex="1">
          <mxGeometry width="30" height="30" as="geometry">
            <mxRectangle width="30" height="30" as="alternateBounds" />
          </mxGeometry>
        </mxCell>
        <mxCell id="kqVs6nVT71hv-M2BMfZQ-80" value="adresse_id" style="shape=partialRectangle;connectable=0;fillColor=#FFFFFF;top=0;left=0;bottom=0;right=0;align=left;spacingLeft=6;fontStyle=5;overflow=hidden;whiteSpace=wrap;html=1;" parent="kqVs6nVT71hv-M2BMfZQ-78" vertex="1">
          <mxGeometry x="30" width="150" height="30" as="geometry">
            <mxRectangle width="150" height="30" as="alternateBounds" />
          </mxGeometry>
        </mxCell>
        <mxCell id="kqVs6nVT71hv-M2BMfZQ-81" value="" style="shape=tableRow;horizontal=0;startSize=0;swimlaneHead=0;swimlaneBody=0;fillColor=#FFFFFF;collapsible=0;dropTarget=0;points=[[0,0.5],[1,0.5]];portConstraint=eastwest;top=0;left=0;right=0;bottom=0;" parent="kqVs6nVT71hv-M2BMfZQ-77" vertex="1">
          <mxGeometry y="60" width="180" height="30" as="geometry" />
        </mxCell>
        <mxCell id="kqVs6nVT71hv-M2BMfZQ-82" value="" style="shape=partialRectangle;connectable=0;fillColor=#FFFFFF;top=0;left=0;bottom=0;right=0;editable=1;overflow=hidden;whiteSpace=wrap;html=1;" parent="kqVs6nVT71hv-M2BMfZQ-81" vertex="1">
          <mxGeometry width="30" height="30" as="geometry">
            <mxRectangle width="30" height="30" as="alternateBounds" />
          </mxGeometry>
        </mxCell>
        <mxCell id="kqVs6nVT71hv-M2BMfZQ-83" value="numero_rue" style="shape=partialRectangle;connectable=0;fillColor=#FFFFFF;top=0;left=0;bottom=0;right=0;align=left;spacingLeft=6;overflow=hidden;whiteSpace=wrap;html=1;" parent="kqVs6nVT71hv-M2BMfZQ-81" vertex="1">
          <mxGeometry x="30" width="150" height="30" as="geometry">
            <mxRectangle width="150" height="30" as="alternateBounds" />
          </mxGeometry>
        </mxCell>
        <mxCell id="kqVs6nVT71hv-M2BMfZQ-84" value="" style="shape=tableRow;horizontal=0;startSize=0;swimlaneHead=0;swimlaneBody=0;fillColor=#FFFFFF;collapsible=0;dropTarget=0;points=[[0,0.5],[1,0.5]];portConstraint=eastwest;top=0;left=0;right=0;bottom=0;" parent="kqVs6nVT71hv-M2BMfZQ-77" vertex="1">
          <mxGeometry y="90" width="180" height="30" as="geometry" />
        </mxCell>
        <mxCell id="kqVs6nVT71hv-M2BMfZQ-85" value="" style="shape=partialRectangle;connectable=0;fillColor=#FFFFFF;top=0;left=0;bottom=0;right=0;editable=1;overflow=hidden;whiteSpace=wrap;html=1;" parent="kqVs6nVT71hv-M2BMfZQ-84" vertex="1">
          <mxGeometry width="30" height="30" as="geometry">
            <mxRectangle width="30" height="30" as="alternateBounds" />
          </mxGeometry>
        </mxCell>
        <mxCell id="kqVs6nVT71hv-M2BMfZQ-86" value="rue" style="shape=partialRectangle;connectable=0;fillColor=#FFFFFF;top=0;left=0;bottom=0;right=0;align=left;spacingLeft=6;overflow=hidden;whiteSpace=wrap;html=1;" parent="kqVs6nVT71hv-M2BMfZQ-84" vertex="1">
          <mxGeometry x="30" width="150" height="30" as="geometry">
            <mxRectangle width="150" height="30" as="alternateBounds" />
          </mxGeometry>
        </mxCell>
        <mxCell id="kqVs6nVT71hv-M2BMfZQ-87" value="" style="shape=tableRow;horizontal=0;startSize=0;swimlaneHead=0;swimlaneBody=0;fillColor=#FFFFFF;collapsible=0;dropTarget=0;points=[[0,0.5],[1,0.5]];portConstraint=eastwest;top=0;left=0;right=0;bottom=0;" parent="kqVs6nVT71hv-M2BMfZQ-77" vertex="1">
          <mxGeometry y="120" width="180" height="30" as="geometry" />
        </mxCell>
        <mxCell id="kqVs6nVT71hv-M2BMfZQ-88" value="" style="shape=partialRectangle;connectable=0;fillColor=#FFFFFF;top=0;left=0;bottom=0;right=0;editable=1;overflow=hidden;whiteSpace=wrap;html=1;" parent="kqVs6nVT71hv-M2BMfZQ-87" vertex="1">
          <mxGeometry width="30" height="30" as="geometry">
            <mxRectangle width="30" height="30" as="alternateBounds" />
          </mxGeometry>
        </mxCell>
        <mxCell id="kqVs6nVT71hv-M2BMfZQ-89" value="code_postal" style="shape=partialRectangle;connectable=0;fillColor=#FFFFFF;top=0;left=0;bottom=0;right=0;align=left;spacingLeft=6;overflow=hidden;whiteSpace=wrap;html=1;" parent="kqVs6nVT71hv-M2BMfZQ-87" vertex="1">
          <mxGeometry x="30" width="150" height="30" as="geometry">
            <mxRectangle width="150" height="30" as="alternateBounds" />
          </mxGeometry>
        </mxCell>
        <mxCell id="kqVs6nVT71hv-M2BMfZQ-90" style="shape=tableRow;horizontal=0;startSize=0;swimlaneHead=0;swimlaneBody=0;fillColor=#FFFFFF;collapsible=0;dropTarget=0;points=[[0,0.5],[1,0.5]];portConstraint=eastwest;top=0;left=0;right=0;bottom=0;" parent="kqVs6nVT71hv-M2BMfZQ-77" vertex="1">
          <mxGeometry y="150" width="180" height="30" as="geometry" />
        </mxCell>
        <mxCell id="kqVs6nVT71hv-M2BMfZQ-91" style="shape=partialRectangle;connectable=0;fillColor=#FFFFFF;top=0;left=0;bottom=0;right=0;editable=1;overflow=hidden;whiteSpace=wrap;html=1;" parent="kqVs6nVT71hv-M2BMfZQ-90" vertex="1">
          <mxGeometry width="30" height="30" as="geometry">
            <mxRectangle width="30" height="30" as="alternateBounds" />
          </mxGeometry>
        </mxCell>
        <mxCell id="kqVs6nVT71hv-M2BMfZQ-92" value="ville" style="shape=partialRectangle;connectable=0;fillColor=#FFFFFF;top=0;left=0;bottom=0;right=0;align=left;spacingLeft=6;overflow=hidden;whiteSpace=wrap;html=1;" parent="kqVs6nVT71hv-M2BMfZQ-90" vertex="1">
          <mxGeometry x="30" width="150" height="30" as="geometry">
            <mxRectangle width="150" height="30" as="alternateBounds" />
          </mxGeometry>
        </mxCell>
        <mxCell id="kqVs6nVT71hv-M2BMfZQ-93" style="shape=tableRow;horizontal=0;startSize=0;swimlaneHead=0;swimlaneBody=0;fillColor=#FFFFFF;collapsible=0;dropTarget=0;points=[[0,0.5],[1,0.5]];portConstraint=eastwest;top=0;left=0;right=0;bottom=0;" parent="kqVs6nVT71hv-M2BMfZQ-77" vertex="1">
          <mxGeometry y="180" width="180" height="30" as="geometry" />
        </mxCell>
        <mxCell id="kqVs6nVT71hv-M2BMfZQ-94" style="shape=partialRectangle;connectable=0;fillColor=#FFFFFF;top=0;left=0;bottom=0;right=0;editable=1;overflow=hidden;whiteSpace=wrap;html=1;" parent="kqVs6nVT71hv-M2BMfZQ-93" vertex="1">
          <mxGeometry width="30" height="30" as="geometry">
            <mxRectangle width="30" height="30" as="alternateBounds" />
          </mxGeometry>
        </mxCell>
        <mxCell id="kqVs6nVT71hv-M2BMfZQ-95" value="pays" style="shape=partialRectangle;connectable=0;fillColor=#FFFFFF;top=0;left=0;bottom=0;right=0;align=left;spacingLeft=6;overflow=hidden;whiteSpace=wrap;html=1;" parent="kqVs6nVT71hv-M2BMfZQ-93" vertex="1">
          <mxGeometry x="30" width="150" height="30" as="geometry">
            <mxRectangle width="150" height="30" as="alternateBounds" />
          </mxGeometry>
        </mxCell>
        <mxCell id="kqVs6nVT71hv-M2BMfZQ-96" style="shape=tableRow;horizontal=0;startSize=0;swimlaneHead=0;swimlaneBody=0;fillColor=#FFFFFF;collapsible=0;dropTarget=0;points=[[0,0.5],[1,0.5]];portConstraint=eastwest;top=0;left=0;right=0;bottom=0;" parent="kqVs6nVT71hv-M2BMfZQ-77" vertex="1">
          <mxGeometry y="210" width="180" height="30" as="geometry" />
        </mxCell>
        <mxCell id="kqVs6nVT71hv-M2BMfZQ-97" style="shape=partialRectangle;connectable=0;fillColor=#FFFFFF;top=0;left=0;bottom=0;right=0;editable=1;overflow=hidden;whiteSpace=wrap;html=1;" parent="kqVs6nVT71hv-M2BMfZQ-96" vertex="1">
          <mxGeometry width="30" height="30" as="geometry">
            <mxRectangle width="30" height="30" as="alternateBounds" />
          </mxGeometry>
        </mxCell>
        <mxCell id="kqVs6nVT71hv-M2BMfZQ-98" value="region" style="shape=partialRectangle;connectable=0;fillColor=#FFFFFF;top=0;left=0;bottom=0;right=0;align=left;spacingLeft=6;overflow=hidden;whiteSpace=wrap;html=1;" parent="kqVs6nVT71hv-M2BMfZQ-96" vertex="1">
          <mxGeometry x="30" width="150" height="30" as="geometry">
            <mxRectangle width="150" height="30" as="alternateBounds" />
          </mxGeometry>
        </mxCell>
        <mxCell id="kqVs6nVT71hv-M2BMfZQ-99" style="shape=tableRow;horizontal=0;startSize=0;swimlaneHead=0;swimlaneBody=0;fillColor=#FFFFFF;collapsible=0;dropTarget=0;points=[[0,0.5],[1,0.5]];portConstraint=eastwest;top=0;left=0;right=0;bottom=0;" parent="kqVs6nVT71hv-M2BMfZQ-77" vertex="1">
          <mxGeometry y="240" width="180" height="30" as="geometry" />
        </mxCell>
        <mxCell id="kqVs6nVT71hv-M2BMfZQ-100" style="shape=partialRectangle;connectable=0;fillColor=#FFFFFF;top=0;left=0;bottom=0;right=0;editable=1;overflow=hidden;whiteSpace=wrap;html=1;" parent="kqVs6nVT71hv-M2BMfZQ-99" vertex="1">
          <mxGeometry width="30" height="30" as="geometry">
            <mxRectangle width="30" height="30" as="alternateBounds" />
          </mxGeometry>
        </mxCell>
        <mxCell id="kqVs6nVT71hv-M2BMfZQ-101" value="complement_adresse" style="shape=partialRectangle;connectable=0;fillColor=#FFFFFF;top=0;left=0;bottom=0;right=0;align=left;spacingLeft=6;overflow=hidden;whiteSpace=wrap;html=1;" parent="kqVs6nVT71hv-M2BMfZQ-99" vertex="1">
          <mxGeometry x="30" width="150" height="30" as="geometry">
            <mxRectangle width="150" height="30" as="alternateBounds" />
          </mxGeometry>
        </mxCell>
        <mxCell id="IJi7_sDKVSXKfqmQZ_vw-176" style="shape=tableRow;horizontal=0;startSize=0;swimlaneHead=0;swimlaneBody=0;fillColor=#FFFFFF;collapsible=0;dropTarget=0;points=[[0,0.5],[1,0.5]];portConstraint=eastwest;top=0;left=0;right=0;bottom=0;" parent="kqVs6nVT71hv-M2BMfZQ-77" vertex="1">
          <mxGeometry y="270" width="180" height="30" as="geometry" />
        </mxCell>
        <mxCell id="IJi7_sDKVSXKfqmQZ_vw-177" style="shape=partialRectangle;connectable=0;fillColor=#FFFFFF;top=0;left=0;bottom=0;right=0;editable=1;overflow=hidden;whiteSpace=wrap;html=1;" parent="IJi7_sDKVSXKfqmQZ_vw-176" vertex="1">
          <mxGeometry width="30" height="30" as="geometry">
            <mxRectangle width="30" height="30" as="alternateBounds" />
          </mxGeometry>
        </mxCell>
        <mxCell id="IJi7_sDKVSXKfqmQZ_vw-178" value="client_id" style="shape=partialRectangle;connectable=0;fillColor=#FFFFFF;top=0;left=0;bottom=0;right=0;align=left;spacingLeft=6;overflow=hidden;whiteSpace=wrap;html=1;" parent="IJi7_sDKVSXKfqmQZ_vw-176" vertex="1">
          <mxGeometry x="30" width="150" height="30" as="geometry">
            <mxRectangle width="150" height="30" as="alternateBounds" />
          </mxGeometry>
        </mxCell>
        <mxCell id="IJi7_sDKVSXKfqmQZ_vw-179" value="FK" style="shape=partialRectangle;connectable=0;fillColor=#FFFFFF;top=0;left=0;bottom=0;right=0;fontStyle=1;overflow=hidden;whiteSpace=wrap;html=1;" parent="zKA0qa-9VVPBx98R9BQj-9" vertex="1">
          <mxGeometry y="270" width="30" height="30" as="geometry">
            <mxRectangle width="30" height="30" as="alternateBounds" />
          </mxGeometry>
        </mxCell>
        <mxCell id="zKA0qa-9VVPBx98R9BQj-10" value="" style="group;fillColor=none;" parent="1" vertex="1" connectable="0">
          <mxGeometry x="-90" y="190" width="180" height="270" as="geometry" />
        </mxCell>
        <mxCell id="kqVs6nVT71hv-M2BMfZQ-42" value="user" style="shape=table;startSize=30;container=1;collapsible=1;childLayout=tableLayout;fixedRows=1;rowLines=0;fontStyle=1;align=center;resizeLast=1;html=1;fillColor=#CCE5FF;" parent="zKA0qa-9VVPBx98R9BQj-10" vertex="1">
          <mxGeometry width="180" height="270" as="geometry" />
        </mxCell>
        <mxCell id="kqVs6nVT71hv-M2BMfZQ-43" value="" style="shape=tableRow;horizontal=0;startSize=0;swimlaneHead=0;swimlaneBody=0;fillColor=#FFFFFF;collapsible=0;dropTarget=0;points=[[0,0.5],[1,0.5]];portConstraint=eastwest;top=0;left=0;right=0;bottom=1;" parent="kqVs6nVT71hv-M2BMfZQ-42" vertex="1">
          <mxGeometry y="30" width="180" height="30" as="geometry" />
        </mxCell>
        <mxCell id="kqVs6nVT71hv-M2BMfZQ-44" value="PK" style="shape=partialRectangle;connectable=0;fillColor=#FFFFFF;top=0;left=0;bottom=0;right=0;fontStyle=1;overflow=hidden;whiteSpace=wrap;html=1;" parent="kqVs6nVT71hv-M2BMfZQ-43" vertex="1">
          <mxGeometry width="30" height="30" as="geometry">
            <mxRectangle width="30" height="30" as="alternateBounds" />
          </mxGeometry>
        </mxCell>
        <mxCell id="kqVs6nVT71hv-M2BMfZQ-45" value="client_id" style="shape=partialRectangle;connectable=0;fillColor=#FFFFFF;top=0;left=0;bottom=0;right=0;align=left;spacingLeft=6;fontStyle=5;overflow=hidden;whiteSpace=wrap;html=1;" parent="kqVs6nVT71hv-M2BMfZQ-43" vertex="1">
          <mxGeometry x="30" width="150" height="30" as="geometry">
            <mxRectangle width="150" height="30" as="alternateBounds" />
          </mxGeometry>
        </mxCell>
        <mxCell id="kqVs6nVT71hv-M2BMfZQ-46" value="" style="shape=tableRow;horizontal=0;startSize=0;swimlaneHead=0;swimlaneBody=0;fillColor=#FFFFFF;collapsible=0;dropTarget=0;points=[[0,0.5],[1,0.5]];portConstraint=eastwest;top=0;left=0;right=0;bottom=0;" parent="kqVs6nVT71hv-M2BMfZQ-42" vertex="1">
          <mxGeometry y="60" width="180" height="30" as="geometry" />
        </mxCell>
        <mxCell id="kqVs6nVT71hv-M2BMfZQ-47" value="" style="shape=partialRectangle;connectable=0;fillColor=#FFFFFF;top=0;left=0;bottom=0;right=0;editable=1;overflow=hidden;whiteSpace=wrap;html=1;" parent="kqVs6nVT71hv-M2BMfZQ-46" vertex="1">
          <mxGeometry width="30" height="30" as="geometry">
            <mxRectangle width="30" height="30" as="alternateBounds" />
          </mxGeometry>
        </mxCell>
        <mxCell id="kqVs6nVT71hv-M2BMfZQ-48" value="nom" style="shape=partialRectangle;connectable=0;fillColor=#FFFFFF;top=0;left=0;bottom=0;right=0;align=left;spacingLeft=6;overflow=hidden;whiteSpace=wrap;html=1;" parent="kqVs6nVT71hv-M2BMfZQ-46" vertex="1">
          <mxGeometry x="30" width="150" height="30" as="geometry">
            <mxRectangle width="150" height="30" as="alternateBounds" />
          </mxGeometry>
        </mxCell>
        <mxCell id="kqVs6nVT71hv-M2BMfZQ-49" value="" style="shape=tableRow;horizontal=0;startSize=0;swimlaneHead=0;swimlaneBody=0;fillColor=#FFFFFF;collapsible=0;dropTarget=0;points=[[0,0.5],[1,0.5]];portConstraint=eastwest;top=0;left=0;right=0;bottom=0;" parent="kqVs6nVT71hv-M2BMfZQ-42" vertex="1">
          <mxGeometry y="90" width="180" height="30" as="geometry" />
        </mxCell>
        <mxCell id="kqVs6nVT71hv-M2BMfZQ-50" value="" style="shape=partialRectangle;connectable=0;fillColor=#FFFFFF;top=0;left=0;bottom=0;right=0;editable=1;overflow=hidden;whiteSpace=wrap;html=1;" parent="kqVs6nVT71hv-M2BMfZQ-49" vertex="1">
          <mxGeometry width="30" height="30" as="geometry">
            <mxRectangle width="30" height="30" as="alternateBounds" />
          </mxGeometry>
        </mxCell>
        <mxCell id="kqVs6nVT71hv-M2BMfZQ-51" value="prenom" style="shape=partialRectangle;connectable=0;fillColor=#FFFFFF;top=0;left=0;bottom=0;right=0;align=left;spacingLeft=6;overflow=hidden;whiteSpace=wrap;html=1;" parent="kqVs6nVT71hv-M2BMfZQ-49" vertex="1">
          <mxGeometry x="30" width="150" height="30" as="geometry">
            <mxRectangle width="150" height="30" as="alternateBounds" />
          </mxGeometry>
        </mxCell>
        <mxCell id="kqVs6nVT71hv-M2BMfZQ-52" value="" style="shape=tableRow;horizontal=0;startSize=0;swimlaneHead=0;swimlaneBody=0;fillColor=#FFFFFF;collapsible=0;dropTarget=0;points=[[0,0.5],[1,0.5]];portConstraint=eastwest;top=0;left=0;right=0;bottom=0;" parent="kqVs6nVT71hv-M2BMfZQ-42" vertex="1">
          <mxGeometry y="120" width="180" height="30" as="geometry" />
        </mxCell>
        <mxCell id="kqVs6nVT71hv-M2BMfZQ-53" value="" style="shape=partialRectangle;connectable=0;fillColor=#FFFFFF;top=0;left=0;bottom=0;right=0;editable=1;overflow=hidden;whiteSpace=wrap;html=1;" parent="kqVs6nVT71hv-M2BMfZQ-52" vertex="1">
          <mxGeometry width="30" height="30" as="geometry">
            <mxRectangle width="30" height="30" as="alternateBounds" />
          </mxGeometry>
        </mxCell>
        <mxCell id="kqVs6nVT71hv-M2BMfZQ-54" value="email" style="shape=partialRectangle;connectable=0;fillColor=#FFFFFF;top=0;left=0;bottom=0;right=0;align=left;spacingLeft=6;overflow=hidden;whiteSpace=wrap;html=1;" parent="kqVs6nVT71hv-M2BMfZQ-52" vertex="1">
          <mxGeometry x="30" width="150" height="30" as="geometry">
            <mxRectangle width="150" height="30" as="alternateBounds" />
          </mxGeometry>
        </mxCell>
        <mxCell id="kqVs6nVT71hv-M2BMfZQ-62" style="shape=tableRow;horizontal=0;startSize=0;swimlaneHead=0;swimlaneBody=0;fillColor=#FFFFFF;collapsible=0;dropTarget=0;points=[[0,0.5],[1,0.5]];portConstraint=eastwest;top=0;left=0;right=0;bottom=0;" parent="kqVs6nVT71hv-M2BMfZQ-42" vertex="1">
          <mxGeometry y="150" width="180" height="30" as="geometry" />
        </mxCell>
        <mxCell id="kqVs6nVT71hv-M2BMfZQ-63" style="shape=partialRectangle;connectable=0;fillColor=#FFFFFF;top=0;left=0;bottom=0;right=0;editable=1;overflow=hidden;whiteSpace=wrap;html=1;" parent="kqVs6nVT71hv-M2BMfZQ-62" vertex="1">
          <mxGeometry width="30" height="30" as="geometry">
            <mxRectangle width="30" height="30" as="alternateBounds" />
          </mxGeometry>
        </mxCell>
        <mxCell id="kqVs6nVT71hv-M2BMfZQ-64" value="telephone" style="shape=partialRectangle;connectable=0;fillColor=#FFFFFF;top=0;left=0;bottom=0;right=0;align=left;spacingLeft=6;overflow=hidden;whiteSpace=wrap;html=1;" parent="kqVs6nVT71hv-M2BMfZQ-62" vertex="1">
          <mxGeometry x="30" width="150" height="30" as="geometry">
            <mxRectangle width="150" height="30" as="alternateBounds" />
          </mxGeometry>
        </mxCell>
        <mxCell id="kqVs6nVT71hv-M2BMfZQ-74" style="shape=tableRow;horizontal=0;startSize=0;swimlaneHead=0;swimlaneBody=0;fillColor=#FFFFFF;collapsible=0;dropTarget=0;points=[[0,0.5],[1,0.5]];portConstraint=eastwest;top=0;left=0;right=0;bottom=0;" parent="kqVs6nVT71hv-M2BMfZQ-42" vertex="1">
          <mxGeometry y="180" width="180" height="30" as="geometry" />
        </mxCell>
        <mxCell id="kqVs6nVT71hv-M2BMfZQ-75" style="shape=partialRectangle;connectable=0;fillColor=#FFFFFF;top=0;left=0;bottom=0;right=0;editable=1;overflow=hidden;whiteSpace=wrap;html=1;" parent="kqVs6nVT71hv-M2BMfZQ-74" vertex="1">
          <mxGeometry width="30" height="30" as="geometry">
            <mxRectangle width="30" height="30" as="alternateBounds" />
          </mxGeometry>
        </mxCell>
        <mxCell id="kqVs6nVT71hv-M2BMfZQ-76" value="hashed_password" style="shape=partialRectangle;connectable=0;fillColor=#FFFFFF;top=0;left=0;bottom=0;right=0;align=left;spacingLeft=6;overflow=hidden;whiteSpace=wrap;html=1;" parent="kqVs6nVT71hv-M2BMfZQ-74" vertex="1">
          <mxGeometry x="30" width="150" height="30" as="geometry">
            <mxRectangle width="150" height="30" as="alternateBounds" />
          </mxGeometry>
        </mxCell>
        <mxCell id="kqVs6nVT71hv-M2BMfZQ-177" style="shape=tableRow;horizontal=0;startSize=0;swimlaneHead=0;swimlaneBody=0;fillColor=#FFFFFF;collapsible=0;dropTarget=0;points=[[0,0.5],[1,0.5]];portConstraint=eastwest;top=0;left=0;right=0;bottom=0;" parent="kqVs6nVT71hv-M2BMfZQ-42" vertex="1">
          <mxGeometry y="210" width="180" height="30" as="geometry" />
        </mxCell>
        <mxCell id="kqVs6nVT71hv-M2BMfZQ-178" style="shape=partialRectangle;connectable=0;fillColor=#FFFFFF;top=0;left=0;bottom=0;right=0;editable=1;overflow=hidden;whiteSpace=wrap;html=1;" parent="kqVs6nVT71hv-M2BMfZQ-177" vertex="1">
          <mxGeometry width="30" height="30" as="geometry">
            <mxRectangle width="30" height="30" as="alternateBounds" />
          </mxGeometry>
        </mxCell>
        <mxCell id="kqVs6nVT71hv-M2BMfZQ-179" value="role_id" style="shape=partialRectangle;connectable=0;fillColor=#FFFFFF;top=0;left=0;bottom=0;right=0;align=left;spacingLeft=6;overflow=hidden;whiteSpace=wrap;html=1;" parent="kqVs6nVT71hv-M2BMfZQ-177" vertex="1">
          <mxGeometry x="30" width="150" height="30" as="geometry">
            <mxRectangle width="150" height="30" as="alternateBounds" />
          </mxGeometry>
        </mxCell>
        <mxCell id="kqVs6nVT71hv-M2BMfZQ-305" style="shape=tableRow;horizontal=0;startSize=0;swimlaneHead=0;swimlaneBody=0;fillColor=#FFFFFF;collapsible=0;dropTarget=0;points=[[0,0.5],[1,0.5]];portConstraint=eastwest;top=0;left=0;right=0;bottom=0;" parent="kqVs6nVT71hv-M2BMfZQ-42" vertex="1">
          <mxGeometry y="240" width="180" height="30" as="geometry" />
        </mxCell>
        <mxCell id="kqVs6nVT71hv-M2BMfZQ-306" style="shape=partialRectangle;connectable=0;fillColor=#FFFFFF;top=0;left=0;bottom=0;right=0;editable=1;overflow=hidden;whiteSpace=wrap;html=1;" parent="kqVs6nVT71hv-M2BMfZQ-305" vertex="1">
          <mxGeometry width="30" height="30" as="geometry">
            <mxRectangle width="30" height="30" as="alternateBounds" />
          </mxGeometry>
        </mxCell>
        <mxCell id="kqVs6nVT71hv-M2BMfZQ-307" value="photo_id" style="shape=partialRectangle;connectable=0;fillColor=#FFFFFF;top=0;left=0;bottom=0;right=0;align=left;spacingLeft=6;overflow=hidden;whiteSpace=wrap;html=1;" parent="kqVs6nVT71hv-M2BMfZQ-305" vertex="1">
          <mxGeometry x="30" width="150" height="30" as="geometry">
            <mxRectangle width="150" height="30" as="alternateBounds" />
          </mxGeometry>
        </mxCell>
        <mxCell id="IJi7_sDKVSXKfqmQZ_vw-174" value="FK" style="shape=partialRectangle;connectable=0;fillColor=#FFFFFF;top=0;left=0;bottom=0;right=0;fontStyle=1;overflow=hidden;whiteSpace=wrap;html=1;" parent="zKA0qa-9VVPBx98R9BQj-10" vertex="1">
          <mxGeometry y="210" width="30" height="30" as="geometry">
            <mxRectangle width="30" height="30" as="alternateBounds" />
          </mxGeometry>
        </mxCell>
        <mxCell id="IJi7_sDKVSXKfqmQZ_vw-175" value="FK" style="shape=partialRectangle;connectable=0;fillColor=#FFFFFF;top=0;left=0;bottom=0;right=0;fontStyle=1;overflow=hidden;whiteSpace=wrap;html=1;" parent="zKA0qa-9VVPBx98R9BQj-10" vertex="1">
          <mxGeometry y="240" width="30" height="30" as="geometry">
            <mxRectangle width="30" height="30" as="alternateBounds" />
          </mxGeometry>
        </mxCell>
        <mxCell id="zKA0qa-9VVPBx98R9BQj-11" value="" style="group" parent="1" vertex="1" connectable="0">
          <mxGeometry x="-90" y="-200" width="180" height="300" as="geometry" />
        </mxCell>
        <mxCell id="zKA0qa-9VVPBx98R9BQj-12" value="vendeur" style="shape=table;startSize=30;container=1;collapsible=1;childLayout=tableLayout;fixedRows=1;rowLines=0;fontStyle=1;align=center;resizeLast=1;html=1;fillColor=#CCE5FF;" parent="zKA0qa-9VVPBx98R9BQj-11" vertex="1">
          <mxGeometry width="180" height="300.0000000000002" as="geometry" />
        </mxCell>
        <mxCell id="zKA0qa-9VVPBx98R9BQj-13" value="" style="shape=tableRow;horizontal=0;startSize=0;swimlaneHead=0;swimlaneBody=0;fillColor=#FFFFFF;collapsible=0;dropTarget=0;points=[[0,0.5],[1,0.5]];portConstraint=eastwest;top=0;left=0;right=0;bottom=1;" parent="zKA0qa-9VVPBx98R9BQj-12" vertex="1">
          <mxGeometry y="30" width="180" height="30" as="geometry" />
        </mxCell>
        <mxCell id="zKA0qa-9VVPBx98R9BQj-14" value="PK" style="shape=partialRectangle;connectable=0;fillColor=#FFFFFF;top=0;left=0;bottom=0;right=0;fontStyle=1;overflow=hidden;whiteSpace=wrap;html=1;" parent="zKA0qa-9VVPBx98R9BQj-13" vertex="1">
          <mxGeometry width="30" height="30" as="geometry">
            <mxRectangle width="30" height="30" as="alternateBounds" />
          </mxGeometry>
        </mxCell>
        <mxCell id="zKA0qa-9VVPBx98R9BQj-15" value="vendeur_id" style="shape=partialRectangle;connectable=0;fillColor=#FFFFFF;top=0;left=0;bottom=0;right=0;align=left;spacingLeft=6;fontStyle=5;overflow=hidden;whiteSpace=wrap;html=1;" parent="zKA0qa-9VVPBx98R9BQj-13" vertex="1">
          <mxGeometry x="30" width="150" height="30" as="geometry">
            <mxRectangle width="150" height="30" as="alternateBounds" />
          </mxGeometry>
        </mxCell>
        <mxCell id="zKA0qa-9VVPBx98R9BQj-16" value="" style="shape=tableRow;horizontal=0;startSize=0;swimlaneHead=0;swimlaneBody=0;fillColor=#FFFFFF;collapsible=0;dropTarget=0;points=[[0,0.5],[1,0.5]];portConstraint=eastwest;top=0;left=0;right=0;bottom=0;" parent="zKA0qa-9VVPBx98R9BQj-12" vertex="1">
          <mxGeometry y="60" width="180" height="30" as="geometry" />
        </mxCell>
        <mxCell id="zKA0qa-9VVPBx98R9BQj-17" value="" style="shape=partialRectangle;connectable=0;fillColor=#FFFFFF;top=0;left=0;bottom=0;right=0;editable=1;overflow=hidden;whiteSpace=wrap;html=1;" parent="zKA0qa-9VVPBx98R9BQj-16" vertex="1">
          <mxGeometry width="30" height="30" as="geometry">
            <mxRectangle width="30" height="30" as="alternateBounds" />
          </mxGeometry>
        </mxCell>
        <mxCell id="zKA0qa-9VVPBx98R9BQj-18" value="client_id" style="shape=partialRectangle;connectable=0;fillColor=#FFFFFF;top=0;left=0;bottom=0;right=0;align=left;spacingLeft=6;overflow=hidden;whiteSpace=wrap;html=1;" parent="zKA0qa-9VVPBx98R9BQj-16" vertex="1">
          <mxGeometry x="30" width="150" height="30" as="geometry">
            <mxRectangle width="150" height="30" as="alternateBounds" />
          </mxGeometry>
        </mxCell>
        <mxCell id="zKA0qa-9VVPBx98R9BQj-19" value="" style="shape=tableRow;horizontal=0;startSize=0;swimlaneHead=0;swimlaneBody=0;fillColor=#FFFFFF;collapsible=0;dropTarget=0;points=[[0,0.5],[1,0.5]];portConstraint=eastwest;top=0;left=0;right=0;bottom=0;" parent="zKA0qa-9VVPBx98R9BQj-12" vertex="1">
          <mxGeometry y="90" width="180" height="30" as="geometry" />
        </mxCell>
        <mxCell id="zKA0qa-9VVPBx98R9BQj-20" value="" style="shape=partialRectangle;connectable=0;fillColor=#FFFFFF;top=0;left=0;bottom=0;right=0;editable=1;overflow=hidden;whiteSpace=wrap;html=1;" parent="zKA0qa-9VVPBx98R9BQj-19" vertex="1">
          <mxGeometry width="30" height="30" as="geometry">
            <mxRectangle width="30" height="30" as="alternateBounds" />
          </mxGeometry>
        </mxCell>
        <mxCell id="zKA0qa-9VVPBx98R9BQj-21" value="creation_date" style="shape=partialRectangle;connectable=0;fillColor=#FFFFFF;top=0;left=0;bottom=0;right=0;align=left;spacingLeft=6;overflow=hidden;whiteSpace=wrap;html=1;" parent="zKA0qa-9VVPBx98R9BQj-19" vertex="1">
          <mxGeometry x="30" width="150" height="30" as="geometry">
            <mxRectangle width="150" height="30" as="alternateBounds" />
          </mxGeometry>
        </mxCell>
        <mxCell id="zKA0qa-9VVPBx98R9BQj-22" value="" style="shape=tableRow;horizontal=0;startSize=0;swimlaneHead=0;swimlaneBody=0;fillColor=#FFFFFF;collapsible=0;dropTarget=0;points=[[0,0.5],[1,0.5]];portConstraint=eastwest;top=0;left=0;right=0;bottom=0;" parent="zKA0qa-9VVPBx98R9BQj-12" vertex="1">
          <mxGeometry y="120" width="180" height="30" as="geometry" />
        </mxCell>
        <mxCell id="zKA0qa-9VVPBx98R9BQj-23" value="" style="shape=partialRectangle;connectable=0;fillColor=#FFFFFF;top=0;left=0;bottom=0;right=0;editable=1;overflow=hidden;whiteSpace=wrap;html=1;" parent="zKA0qa-9VVPBx98R9BQj-22" vertex="1">
          <mxGeometry width="30" height="30" as="geometry">
            <mxRectangle width="30" height="30" as="alternateBounds" />
          </mxGeometry>
        </mxCell>
        <mxCell id="zKA0qa-9VVPBx98R9BQj-24" value="nom_commercial" style="shape=partialRectangle;connectable=0;fillColor=#FFFFFF;top=0;left=0;bottom=0;right=0;align=left;spacingLeft=6;overflow=hidden;whiteSpace=wrap;html=1;" parent="zKA0qa-9VVPBx98R9BQj-22" vertex="1">
          <mxGeometry x="30" width="150" height="30" as="geometry">
            <mxRectangle width="150" height="30" as="alternateBounds" />
          </mxGeometry>
        </mxCell>
        <mxCell id="zKA0qa-9VVPBx98R9BQj-25" style="shape=tableRow;horizontal=0;startSize=0;swimlaneHead=0;swimlaneBody=0;fillColor=#FFFFFF;collapsible=0;dropTarget=0;points=[[0,0.5],[1,0.5]];portConstraint=eastwest;top=0;left=0;right=0;bottom=0;" parent="zKA0qa-9VVPBx98R9BQj-12" vertex="1">
          <mxGeometry y="150" width="180" height="30" as="geometry" />
        </mxCell>
        <mxCell id="zKA0qa-9VVPBx98R9BQj-26" style="shape=partialRectangle;connectable=0;fillColor=#FFFFFF;top=0;left=0;bottom=0;right=0;editable=1;overflow=hidden;whiteSpace=wrap;html=1;" parent="zKA0qa-9VVPBx98R9BQj-25" vertex="1">
          <mxGeometry width="30" height="30" as="geometry">
            <mxRectangle width="30" height="30" as="alternateBounds" />
          </mxGeometry>
        </mxCell>
        <mxCell id="zKA0qa-9VVPBx98R9BQj-27" value="type_activite" style="shape=partialRectangle;connectable=0;fillColor=#FFFFFF;top=0;left=0;bottom=0;right=0;align=left;spacingLeft=6;overflow=hidden;whiteSpace=wrap;html=1;" parent="zKA0qa-9VVPBx98R9BQj-25" vertex="1">
          <mxGeometry x="30" width="150" height="30" as="geometry">
            <mxRectangle width="150" height="30" as="alternateBounds" />
          </mxGeometry>
        </mxCell>
        <mxCell id="zKA0qa-9VVPBx98R9BQj-28" style="shape=tableRow;horizontal=0;startSize=0;swimlaneHead=0;swimlaneBody=0;fillColor=#FFFFFF;collapsible=0;dropTarget=0;points=[[0,0.5],[1,0.5]];portConstraint=eastwest;top=0;left=0;right=0;bottom=0;" parent="zKA0qa-9VVPBx98R9BQj-12" vertex="1">
          <mxGeometry y="180" width="180" height="30" as="geometry" />
        </mxCell>
        <mxCell id="zKA0qa-9VVPBx98R9BQj-29" style="shape=partialRectangle;connectable=0;fillColor=#FFFFFF;top=0;left=0;bottom=0;right=0;editable=1;overflow=hidden;whiteSpace=wrap;html=1;" parent="zKA0qa-9VVPBx98R9BQj-28" vertex="1">
          <mxGeometry width="30" height="30" as="geometry">
            <mxRectangle width="30" height="30" as="alternateBounds" />
          </mxGeometry>
        </mxCell>
        <mxCell id="zKA0qa-9VVPBx98R9BQj-30" value="n_registre_commerce" style="shape=partialRectangle;connectable=0;fillColor=#FFFFFF;top=0;left=0;bottom=0;right=0;align=left;spacingLeft=6;overflow=hidden;whiteSpace=wrap;html=1;" parent="zKA0qa-9VVPBx98R9BQj-28" vertex="1">
          <mxGeometry x="30" width="150" height="30" as="geometry">
            <mxRectangle width="150" height="30" as="alternateBounds" />
          </mxGeometry>
        </mxCell>
        <mxCell id="zKA0qa-9VVPBx98R9BQj-31" style="shape=tableRow;horizontal=0;startSize=0;swimlaneHead=0;swimlaneBody=0;fillColor=#FFFFFF;collapsible=0;dropTarget=0;points=[[0,0.5],[1,0.5]];portConstraint=eastwest;top=0;left=0;right=0;bottom=0;" parent="zKA0qa-9VVPBx98R9BQj-12" vertex="1">
          <mxGeometry y="210" width="180" height="30" as="geometry" />
        </mxCell>
        <mxCell id="zKA0qa-9VVPBx98R9BQj-32" style="shape=partialRectangle;connectable=0;fillColor=#FFFFFF;top=0;left=0;bottom=0;right=0;editable=1;overflow=hidden;whiteSpace=wrap;html=1;" parent="zKA0qa-9VVPBx98R9BQj-31" vertex="1">
          <mxGeometry width="30" height="30" as="geometry">
            <mxRectangle width="30" height="30" as="alternateBounds" />
          </mxGeometry>
        </mxCell>
        <mxCell id="zKA0qa-9VVPBx98R9BQj-33" value="n_tva" style="shape=partialRectangle;connectable=0;fillColor=#FFFFFF;top=0;left=0;bottom=0;right=0;align=left;spacingLeft=6;overflow=hidden;whiteSpace=wrap;html=1;" parent="zKA0qa-9VVPBx98R9BQj-31" vertex="1">
          <mxGeometry x="30" width="150" height="30" as="geometry">
            <mxRectangle width="150" height="30" as="alternateBounds" />
          </mxGeometry>
        </mxCell>
        <mxCell id="zKA0qa-9VVPBx98R9BQj-34" style="shape=tableRow;horizontal=0;startSize=0;swimlaneHead=0;swimlaneBody=0;fillColor=#FFFFFF;collapsible=0;dropTarget=0;points=[[0,0.5],[1,0.5]];portConstraint=eastwest;top=0;left=0;right=0;bottom=0;" parent="zKA0qa-9VVPBx98R9BQj-12" vertex="1">
          <mxGeometry y="240" width="180" height="30" as="geometry" />
        </mxCell>
        <mxCell id="zKA0qa-9VVPBx98R9BQj-35" style="shape=partialRectangle;connectable=0;fillColor=#FFFFFF;top=0;left=0;bottom=0;right=0;editable=1;overflow=hidden;whiteSpace=wrap;html=1;" parent="zKA0qa-9VVPBx98R9BQj-34" vertex="1">
          <mxGeometry width="30" height="30" as="geometry">
            <mxRectangle width="30" height="30" as="alternateBounds" />
          </mxGeometry>
        </mxCell>
        <mxCell id="zKA0qa-9VVPBx98R9BQj-36" value="telephone" style="shape=partialRectangle;connectable=0;fillColor=#FFFFFF;top=0;left=0;bottom=0;right=0;align=left;spacingLeft=6;overflow=hidden;whiteSpace=wrap;html=1;" parent="zKA0qa-9VVPBx98R9BQj-34" vertex="1">
          <mxGeometry x="30" width="150" height="30" as="geometry">
            <mxRectangle width="150" height="30" as="alternateBounds" />
          </mxGeometry>
        </mxCell>
        <mxCell id="zKA0qa-9VVPBx98R9BQj-43" style="shape=tableRow;horizontal=0;startSize=0;swimlaneHead=0;swimlaneBody=0;fillColor=#FFFFFF;collapsible=0;dropTarget=0;points=[[0,0.5],[1,0.5]];portConstraint=eastwest;top=0;left=0;right=0;bottom=0;" parent="zKA0qa-9VVPBx98R9BQj-12" vertex="1">
          <mxGeometry y="270" width="180" height="30" as="geometry" />
        </mxCell>
        <mxCell id="zKA0qa-9VVPBx98R9BQj-44" style="shape=partialRectangle;connectable=0;fillColor=#FFFFFF;top=0;left=0;bottom=0;right=0;editable=1;overflow=hidden;whiteSpace=wrap;html=1;" parent="zKA0qa-9VVPBx98R9BQj-43" vertex="1">
          <mxGeometry width="30" height="30" as="geometry">
            <mxRectangle width="30" height="30" as="alternateBounds" />
          </mxGeometry>
        </mxCell>
        <mxCell id="zKA0qa-9VVPBx98R9BQj-45" value="email" style="shape=partialRectangle;connectable=0;fillColor=#FFFFFF;top=0;left=0;bottom=0;right=0;align=left;spacingLeft=6;overflow=hidden;whiteSpace=wrap;html=1;" parent="zKA0qa-9VVPBx98R9BQj-43" vertex="1">
          <mxGeometry x="30" width="150" height="30" as="geometry">
            <mxRectangle width="150" height="30" as="alternateBounds" />
          </mxGeometry>
        </mxCell>
        <mxCell id="zKA0qa-9VVPBx98R9BQj-37" value="" style="shape=partialRectangle;connectable=0;fillColor=#FFFFFF;top=0;left=0;bottom=0;right=0;fontStyle=1;overflow=hidden;whiteSpace=wrap;html=1;" parent="zKA0qa-9VVPBx98R9BQj-11" vertex="1">
          <mxGeometry y="190.9090909090909" width="30" height="27.272727272727273" as="geometry">
            <mxRectangle width="30" height="30" as="alternateBounds" />
          </mxGeometry>
        </mxCell>
        <mxCell id="zKA0qa-9VVPBx98R9BQj-38" value="" style="shape=partialRectangle;connectable=0;fillColor=#FFFFFF;top=0;left=0;bottom=0;right=0;fontStyle=1;overflow=hidden;whiteSpace=wrap;html=1;" parent="zKA0qa-9VVPBx98R9BQj-11" vertex="1">
          <mxGeometry y="218.1818181818182" width="30" height="27.272727272727273" as="geometry">
            <mxRectangle width="30" height="30" as="alternateBounds" />
          </mxGeometry>
        </mxCell>
        <mxCell id="zKA0qa-9VVPBx98R9BQj-42" value="FK" style="shape=partialRectangle;connectable=0;fillColor=#FFFFFF;top=0;left=0;bottom=0;right=0;fontStyle=1;overflow=hidden;whiteSpace=wrap;html=1;" parent="zKA0qa-9VVPBx98R9BQj-11" vertex="1">
          <mxGeometry y="59.99545454545455" width="30" height="27.272727272727273" as="geometry">
            <mxRectangle width="30" height="30" as="alternateBounds" />
          </mxGeometry>
        </mxCell>
        <mxCell id="zKA0qa-9VVPBx98R9BQj-41" value="" style="group" parent="1" vertex="1" connectable="0">
          <mxGeometry x="-90" y="530" width="180" height="270" as="geometry" />
        </mxCell>
        <mxCell id="kqVs6nVT71hv-M2BMfZQ-102" value="product" style="shape=table;startSize=30;container=1;collapsible=1;childLayout=tableLayout;fixedRows=1;rowLines=0;fontStyle=1;align=center;resizeLast=1;html=1;fillColor=#CCE5FF;" parent="zKA0qa-9VVPBx98R9BQj-41" vertex="1">
          <mxGeometry width="180" height="270" as="geometry" />
        </mxCell>
        <mxCell id="kqVs6nVT71hv-M2BMfZQ-103" value="" style="shape=tableRow;horizontal=0;startSize=0;swimlaneHead=0;swimlaneBody=0;fillColor=#FFFFFF;collapsible=0;dropTarget=0;points=[[0,0.5],[1,0.5]];portConstraint=eastwest;top=0;left=0;right=0;bottom=1;" parent="kqVs6nVT71hv-M2BMfZQ-102" vertex="1">
          <mxGeometry y="30" width="180" height="30" as="geometry" />
        </mxCell>
        <mxCell id="kqVs6nVT71hv-M2BMfZQ-104" value="PK" style="shape=partialRectangle;connectable=0;fillColor=#FFFFFF;top=0;left=0;bottom=0;right=0;fontStyle=1;overflow=hidden;whiteSpace=wrap;html=1;" parent="kqVs6nVT71hv-M2BMfZQ-103" vertex="1">
          <mxGeometry width="30" height="30" as="geometry">
            <mxRectangle width="30" height="30" as="alternateBounds" />
          </mxGeometry>
        </mxCell>
        <mxCell id="kqVs6nVT71hv-M2BMfZQ-105" value="produit_id" style="shape=partialRectangle;connectable=0;fillColor=#FFFFFF;top=0;left=0;bottom=0;right=0;align=left;spacingLeft=6;fontStyle=5;overflow=hidden;whiteSpace=wrap;html=1;" parent="kqVs6nVT71hv-M2BMfZQ-103" vertex="1">
          <mxGeometry x="30" width="150" height="30" as="geometry">
            <mxRectangle width="150" height="30" as="alternateBounds" />
          </mxGeometry>
        </mxCell>
        <mxCell id="kqVs6nVT71hv-M2BMfZQ-106" value="" style="shape=tableRow;horizontal=0;startSize=0;swimlaneHead=0;swimlaneBody=0;fillColor=#FFFFFF;collapsible=0;dropTarget=0;points=[[0,0.5],[1,0.5]];portConstraint=eastwest;top=0;left=0;right=0;bottom=0;" parent="kqVs6nVT71hv-M2BMfZQ-102" vertex="1">
          <mxGeometry y="60" width="180" height="30" as="geometry" />
        </mxCell>
        <mxCell id="kqVs6nVT71hv-M2BMfZQ-107" value="" style="shape=partialRectangle;connectable=0;fillColor=#FFFFFF;top=0;left=0;bottom=0;right=0;editable=1;overflow=hidden;whiteSpace=wrap;html=1;" parent="kqVs6nVT71hv-M2BMfZQ-106" vertex="1">
          <mxGeometry width="30" height="30" as="geometry">
            <mxRectangle width="30" height="30" as="alternateBounds" />
          </mxGeometry>
        </mxCell>
        <mxCell id="kqVs6nVT71hv-M2BMfZQ-108" value="nom" style="shape=partialRectangle;connectable=0;fillColor=#FFFFFF;top=0;left=0;bottom=0;right=0;align=left;spacingLeft=6;overflow=hidden;whiteSpace=wrap;html=1;" parent="kqVs6nVT71hv-M2BMfZQ-106" vertex="1">
          <mxGeometry x="30" width="150" height="30" as="geometry">
            <mxRectangle width="150" height="30" as="alternateBounds" />
          </mxGeometry>
        </mxCell>
        <mxCell id="kqVs6nVT71hv-M2BMfZQ-109" value="" style="shape=tableRow;horizontal=0;startSize=0;swimlaneHead=0;swimlaneBody=0;fillColor=#FFFFFF;collapsible=0;dropTarget=0;points=[[0,0.5],[1,0.5]];portConstraint=eastwest;top=0;left=0;right=0;bottom=0;" parent="kqVs6nVT71hv-M2BMfZQ-102" vertex="1">
          <mxGeometry y="90" width="180" height="30" as="geometry" />
        </mxCell>
        <mxCell id="kqVs6nVT71hv-M2BMfZQ-110" value="" style="shape=partialRectangle;connectable=0;fillColor=#FFFFFF;top=0;left=0;bottom=0;right=0;editable=1;overflow=hidden;whiteSpace=wrap;html=1;" parent="kqVs6nVT71hv-M2BMfZQ-109" vertex="1">
          <mxGeometry width="30" height="30" as="geometry">
            <mxRectangle width="30" height="30" as="alternateBounds" />
          </mxGeometry>
        </mxCell>
        <mxCell id="kqVs6nVT71hv-M2BMfZQ-111" value="prix" style="shape=partialRectangle;connectable=0;fillColor=#FFFFFF;top=0;left=0;bottom=0;right=0;align=left;spacingLeft=6;overflow=hidden;whiteSpace=wrap;html=1;" parent="kqVs6nVT71hv-M2BMfZQ-109" vertex="1">
          <mxGeometry x="30" width="150" height="30" as="geometry">
            <mxRectangle width="150" height="30" as="alternateBounds" />
          </mxGeometry>
        </mxCell>
        <mxCell id="kqVs6nVT71hv-M2BMfZQ-112" value="" style="shape=tableRow;horizontal=0;startSize=0;swimlaneHead=0;swimlaneBody=0;fillColor=#FFFFFF;collapsible=0;dropTarget=0;points=[[0,0.5],[1,0.5]];portConstraint=eastwest;top=0;left=0;right=0;bottom=0;" parent="kqVs6nVT71hv-M2BMfZQ-102" vertex="1">
          <mxGeometry y="120" width="180" height="30" as="geometry" />
        </mxCell>
        <mxCell id="kqVs6nVT71hv-M2BMfZQ-113" value="" style="shape=partialRectangle;connectable=0;fillColor=#FFFFFF;top=0;left=0;bottom=0;right=0;editable=1;overflow=hidden;whiteSpace=wrap;html=1;" parent="kqVs6nVT71hv-M2BMfZQ-112" vertex="1">
          <mxGeometry width="30" height="30" as="geometry">
            <mxRectangle width="30" height="30" as="alternateBounds" />
          </mxGeometry>
        </mxCell>
        <mxCell id="kqVs6nVT71hv-M2BMfZQ-114" value="description" style="shape=partialRectangle;connectable=0;fillColor=#FFFFFF;top=0;left=0;bottom=0;right=0;align=left;spacingLeft=6;overflow=hidden;whiteSpace=wrap;html=1;" parent="kqVs6nVT71hv-M2BMfZQ-112" vertex="1">
          <mxGeometry x="30" width="150" height="30" as="geometry">
            <mxRectangle width="150" height="30" as="alternateBounds" />
          </mxGeometry>
        </mxCell>
        <mxCell id="kqVs6nVT71hv-M2BMfZQ-115" style="shape=tableRow;horizontal=0;startSize=0;swimlaneHead=0;swimlaneBody=0;fillColor=#FFFFFF;collapsible=0;dropTarget=0;points=[[0,0.5],[1,0.5]];portConstraint=eastwest;top=0;left=0;right=0;bottom=0;" parent="kqVs6nVT71hv-M2BMfZQ-102" vertex="1">
          <mxGeometry y="150" width="180" height="30" as="geometry" />
        </mxCell>
        <mxCell id="kqVs6nVT71hv-M2BMfZQ-116" style="shape=partialRectangle;connectable=0;fillColor=#FFFFFF;top=0;left=0;bottom=0;right=0;editable=1;overflow=hidden;whiteSpace=wrap;html=1;" parent="kqVs6nVT71hv-M2BMfZQ-115" vertex="1">
          <mxGeometry width="30" height="30" as="geometry">
            <mxRectangle width="30" height="30" as="alternateBounds" />
          </mxGeometry>
        </mxCell>
        <mxCell id="kqVs6nVT71hv-M2BMfZQ-117" value="&lt;span style=&quot;font-weight: 700; text-decoration-line: underline;&quot;&gt;vendeur_id&lt;/span&gt;" style="shape=partialRectangle;connectable=0;fillColor=#FFFFFF;top=0;left=0;bottom=0;right=0;align=left;spacingLeft=6;overflow=hidden;whiteSpace=wrap;html=1;" parent="kqVs6nVT71hv-M2BMfZQ-115" vertex="1">
          <mxGeometry x="30" width="150" height="30" as="geometry">
            <mxRectangle width="150" height="30" as="alternateBounds" />
          </mxGeometry>
        </mxCell>
        <mxCell id="kqVs6nVT71hv-M2BMfZQ-118" style="shape=tableRow;horizontal=0;startSize=0;swimlaneHead=0;swimlaneBody=0;fillColor=#FFFFFF;collapsible=0;dropTarget=0;points=[[0,0.5],[1,0.5]];portConstraint=eastwest;top=0;left=0;right=0;bottom=0;" parent="kqVs6nVT71hv-M2BMfZQ-102" vertex="1">
          <mxGeometry y="180" width="180" height="30" as="geometry" />
        </mxCell>
        <mxCell id="kqVs6nVT71hv-M2BMfZQ-119" style="shape=partialRectangle;connectable=0;fillColor=#FFFFFF;top=0;left=0;bottom=0;right=0;editable=1;overflow=hidden;whiteSpace=wrap;html=1;" parent="kqVs6nVT71hv-M2BMfZQ-118" vertex="1">
          <mxGeometry width="30" height="30" as="geometry">
            <mxRectangle width="30" height="30" as="alternateBounds" />
          </mxGeometry>
        </mxCell>
        <mxCell id="kqVs6nVT71hv-M2BMfZQ-120" value="stock" style="shape=partialRectangle;connectable=0;fillColor=#FFFFFF;top=0;left=0;bottom=0;right=0;align=left;spacingLeft=6;overflow=hidden;whiteSpace=wrap;html=1;" parent="kqVs6nVT71hv-M2BMfZQ-118" vertex="1">
          <mxGeometry x="30" width="150" height="30" as="geometry">
            <mxRectangle width="150" height="30" as="alternateBounds" />
          </mxGeometry>
        </mxCell>
        <mxCell id="kqVs6nVT71hv-M2BMfZQ-121" style="shape=tableRow;horizontal=0;startSize=0;swimlaneHead=0;swimlaneBody=0;fillColor=#FFFFFF;collapsible=0;dropTarget=0;points=[[0,0.5],[1,0.5]];portConstraint=eastwest;top=0;left=0;right=0;bottom=0;" parent="kqVs6nVT71hv-M2BMfZQ-102" vertex="1">
          <mxGeometry y="210" width="180" height="30" as="geometry" />
        </mxCell>
        <mxCell id="kqVs6nVT71hv-M2BMfZQ-122" style="shape=partialRectangle;connectable=0;fillColor=#FFFFFF;top=0;left=0;bottom=0;right=0;editable=1;overflow=hidden;whiteSpace=wrap;html=1;" parent="kqVs6nVT71hv-M2BMfZQ-121" vertex="1">
          <mxGeometry width="30" height="30" as="geometry">
            <mxRectangle width="30" height="30" as="alternateBounds" />
          </mxGeometry>
        </mxCell>
        <mxCell id="kqVs6nVT71hv-M2BMfZQ-123" value="etat_id" style="shape=partialRectangle;connectable=0;fillColor=#FFFFFF;top=0;left=0;bottom=0;right=0;align=left;spacingLeft=6;overflow=hidden;whiteSpace=wrap;html=1;" parent="kqVs6nVT71hv-M2BMfZQ-121" vertex="1">
          <mxGeometry x="30" width="150" height="30" as="geometry">
            <mxRectangle width="150" height="30" as="alternateBounds" />
          </mxGeometry>
        </mxCell>
        <mxCell id="kqVs6nVT71hv-M2BMfZQ-321" style="shape=tableRow;horizontal=0;startSize=0;swimlaneHead=0;swimlaneBody=0;fillColor=#FFFFFF;collapsible=0;dropTarget=0;points=[[0,0.5],[1,0.5]];portConstraint=eastwest;top=0;left=0;right=0;bottom=0;" parent="kqVs6nVT71hv-M2BMfZQ-102" vertex="1">
          <mxGeometry y="240" width="180" height="30" as="geometry" />
        </mxCell>
        <mxCell id="kqVs6nVT71hv-M2BMfZQ-322" style="shape=partialRectangle;connectable=0;fillColor=#FFFFFF;top=0;left=0;bottom=0;right=0;editable=1;overflow=hidden;whiteSpace=wrap;html=1;" parent="kqVs6nVT71hv-M2BMfZQ-321" vertex="1">
          <mxGeometry width="30" height="30" as="geometry">
            <mxRectangle width="30" height="30" as="alternateBounds" />
          </mxGeometry>
        </mxCell>
        <mxCell id="kqVs6nVT71hv-M2BMfZQ-323" value="photo_id" style="shape=partialRectangle;connectable=0;fillColor=#FFFFFF;top=0;left=0;bottom=0;right=0;align=left;spacingLeft=6;overflow=hidden;whiteSpace=wrap;html=1;" parent="kqVs6nVT71hv-M2BMfZQ-321" vertex="1">
          <mxGeometry x="30" width="150" height="30" as="geometry">
            <mxRectangle width="150" height="30" as="alternateBounds" />
          </mxGeometry>
        </mxCell>
        <mxCell id="zKA0qa-9VVPBx98R9BQj-40" value="FK" style="shape=partialRectangle;connectable=0;fillColor=#FFFFFF;top=0;left=0;bottom=0;right=0;fontStyle=1;overflow=hidden;whiteSpace=wrap;html=1;" parent="zKA0qa-9VVPBx98R9BQj-41" vertex="1">
          <mxGeometry y="150" width="30" height="30" as="geometry">
            <mxRectangle width="30" height="30" as="alternateBounds" />
          </mxGeometry>
        </mxCell>
        <mxCell id="zKA0qa-9VVPBx98R9BQj-57" value="FK" style="shape=partialRectangle;connectable=0;fillColor=#FFFFFF;top=0;left=0;bottom=0;right=0;fontStyle=1;overflow=hidden;whiteSpace=wrap;html=1;" parent="zKA0qa-9VVPBx98R9BQj-41" vertex="1">
          <mxGeometry y="240" width="30" height="30" as="geometry">
            <mxRectangle width="30" height="30" as="alternateBounds" />
          </mxGeometry>
        </mxCell>
        <mxCell id="zKA0qa-9VVPBx98R9BQj-59" value="FK" style="shape=partialRectangle;connectable=0;fillColor=#FFFFFF;top=0;left=0;bottom=0;right=0;fontStyle=1;overflow=hidden;whiteSpace=wrap;html=1;" parent="zKA0qa-9VVPBx98R9BQj-41" vertex="1">
          <mxGeometry y="210" width="30" height="30" as="geometry">
            <mxRectangle width="30" height="30" as="alternateBounds" />
          </mxGeometry>
        </mxCell>
        <mxCell id="zKA0qa-9VVPBx98R9BQj-55" value="" style="endArrow=classic;html=1;rounded=0;exitX=1;exitY=0.5;exitDx=0;exitDy=0;edgeStyle=entityRelationEdgeStyle;" parent="1" source="kqVs6nVT71hv-M2BMfZQ-269" edge="1">
          <mxGeometry width="50" height="50" relative="1" as="geometry">
            <mxPoint x="-190" y="335" as="sourcePoint" />
            <mxPoint x="-90" y="410" as="targetPoint" />
          </mxGeometry>
        </mxCell>
        <mxCell id="zKA0qa-9VVPBx98R9BQj-56" value="" style="endArrow=classic;html=1;rounded=0;edgeStyle=elbowEdgeStyle;exitX=1;exitY=0.5;exitDx=0;exitDy=0;" parent="1" source="kqVs6nVT71hv-M2BMfZQ-309" edge="1">
          <mxGeometry width="50" height="50" relative="1" as="geometry">
            <mxPoint x="450" y="580" as="sourcePoint" />
            <mxPoint x="-90" y="440" as="targetPoint" />
            <Array as="points">
              <mxPoint x="-120" y="500" />
            </Array>
          </mxGeometry>
        </mxCell>
        <mxCell id="zKA0qa-9VVPBx98R9BQj-61" value="" style="endArrow=classic;html=1;rounded=0;edgeStyle=elbowEdgeStyle;exitX=1;exitY=0.5;exitDx=0;exitDy=0;" parent="1" source="kqVs6nVT71hv-M2BMfZQ-309" edge="1">
          <mxGeometry width="50" height="50" relative="1" as="geometry">
            <mxPoint x="-160" y="720" as="sourcePoint" />
            <mxPoint x="-90" y="780" as="targetPoint" />
            <Array as="points">
              <mxPoint x="-120" y="670" />
            </Array>
          </mxGeometry>
        </mxCell>
        <mxCell id="zKA0qa-9VVPBx98R9BQj-62" value="" style="endArrow=classic;html=1;rounded=0;edgeStyle=elbowEdgeStyle;exitX=0;exitY=0.5;exitDx=0;exitDy=0;" parent="1" source="kqVs6nVT71hv-M2BMfZQ-43" edge="1">
          <mxGeometry width="50" height="50" relative="1" as="geometry">
            <mxPoint x="-240" y="30" as="sourcePoint" />
            <mxPoint x="-90" y="-130" as="targetPoint" />
            <Array as="points">
              <mxPoint x="-140" y="50" />
            </Array>
          </mxGeometry>
        </mxCell>
        <mxCell id="zKA0qa-9VVPBx98R9BQj-63" value="" style="endArrow=classic;html=1;rounded=0;edgeStyle=elbowEdgeStyle;exitX=1;exitY=0.5;exitDx=0;exitDy=0;entryX=0;entryY=0.5;entryDx=0;entryDy=0;" parent="1" source="IJi7_sDKVSXKfqmQZ_vw-176" target="kqVs6nVT71hv-M2BMfZQ-43" edge="1">
          <mxGeometry width="50" height="50" relative="1" as="geometry">
            <mxPoint x="-290" y="260" as="sourcePoint" />
            <mxPoint x="-130" y="290" as="targetPoint" />
            <Array as="points">
              <mxPoint x="-140" y="250" />
            </Array>
          </mxGeometry>
        </mxCell>
        <mxCell id="zKA0qa-9VVPBx98R9BQj-64" value="" style="endArrow=classic;html=1;rounded=0;edgeStyle=elbowEdgeStyle;exitX=1;exitY=0.5;exitDx=0;exitDy=0;entryX=0;entryY=0.5;entryDx=0;entryDy=0;" parent="1" source="zKA0qa-9VVPBx98R9BQj-16" target="kqVs6nVT71hv-M2BMfZQ-150" edge="1">
          <mxGeometry width="50" height="50" relative="1" as="geometry">
            <mxPoint x="120" y="-70" as="sourcePoint" />
            <mxPoint x="190" y="-125" as="targetPoint" />
          </mxGeometry>
        </mxCell>
        <mxCell id="zKA0qa-9VVPBx98R9BQj-66" value="" style="endArrow=classic;html=1;rounded=0;edgeStyle=elbowEdgeStyle;exitX=1;exitY=0.5;exitDx=0;exitDy=0;entryX=0;entryY=0.5;entryDx=0;entryDy=0;" parent="1" source="kqVs6nVT71hv-M2BMfZQ-162" target="kqVs6nVT71hv-M2BMfZQ-276" edge="1">
          <mxGeometry width="50" height="50" relative="1" as="geometry">
            <mxPoint x="320" y="150" as="sourcePoint" />
            <mxPoint x="370" y="100" as="targetPoint" />
            <Array as="points">
              <mxPoint x="440" y="180" />
            </Array>
          </mxGeometry>
        </mxCell>
        <mxCell id="zKA0qa-9VVPBx98R9BQj-67" value="" style="endArrow=classic;html=1;rounded=0;edgeStyle=elbowEdgeStyle;exitX=1;exitY=0.5;exitDx=0;exitDy=0;entryX=0;entryY=0.5;entryDx=0;entryDy=0;" parent="1" source="kqVs6nVT71hv-M2BMfZQ-159" target="IJi7_sDKVSXKfqmQZ_vw-241" edge="1">
          <mxGeometry width="50" height="50" relative="1" as="geometry">
            <mxPoint x="410" y="-350" as="sourcePoint" />
            <mxPoint x="460" y="-400" as="targetPoint" />
          </mxGeometry>
        </mxCell>
        <mxCell id="zKA0qa-9VVPBx98R9BQj-68" value="" style="endArrow=classic;html=1;rounded=0;edgeStyle=elbowEdgeStyle;exitX=1;exitY=0.5;exitDx=0;exitDy=0;" parent="1" source="kqVs6nVT71hv-M2BMfZQ-103" edge="1">
          <mxGeometry width="50" height="50" relative="1" as="geometry">
            <mxPoint x="92" y="575" as="sourcePoint" />
            <mxPoint x="190" y="500" as="targetPoint" />
          </mxGeometry>
        </mxCell>
        <mxCell id="zKA0qa-9VVPBx98R9BQj-69" value="" style="endArrow=classic;html=1;rounded=0;edgeStyle=elbowEdgeStyle;exitX=1;exitY=0.5;exitDx=0;exitDy=0;" parent="1" source="kqVs6nVT71hv-M2BMfZQ-43" edge="1">
          <mxGeometry width="50" height="50" relative="1" as="geometry">
            <mxPoint x="130" y="310" as="sourcePoint" />
            <mxPoint x="240" y="280" as="targetPoint" />
          </mxGeometry>
        </mxCell>
        <mxCell id="zKA0qa-9VVPBx98R9BQj-70" value="" style="endArrow=classic;html=1;rounded=0;edgeStyle=elbowEdgeStyle;entryX=0;entryY=0.5;entryDx=0;entryDy=0;" parent="1" target="kqVs6nVT71hv-M2BMfZQ-128" edge="1">
          <mxGeometry width="50" height="50" relative="1" as="geometry">
            <mxPoint x="190" y="470" as="sourcePoint" />
            <mxPoint x="200" y="330" as="targetPoint" />
            <Array as="points">
              <mxPoint x="150" y="400" />
            </Array>
          </mxGeometry>
        </mxCell>
        <mxCell id="zKA0qa-9VVPBx98R9BQj-71" value="" style="endArrow=classic;html=1;rounded=0;exitX=1;exitY=0.5;exitDx=0;exitDy=0;entryX=0;entryY=0.5;entryDx=0;entryDy=0;" parent="1" source="kqVs6nVT71hv-M2BMfZQ-143" target="IJi7_sDKVSXKfqmQZ_vw-232" edge="1">
          <mxGeometry width="50" height="50" relative="1" as="geometry">
            <mxPoint x="490" y="290" as="sourcePoint" />
            <mxPoint x="540" y="240" as="targetPoint" />
          </mxGeometry>
        </mxCell>
        <mxCell id="zKA0qa-9VVPBx98R9BQj-72" value="" style="endArrow=classic;html=1;rounded=0;exitX=1;exitY=0.5;exitDx=0;exitDy=0;entryX=0;entryY=0.5;entryDx=0;entryDy=0;" parent="1" source="kqVs6nVT71hv-M2BMfZQ-121" target="kqVs6nVT71hv-M2BMfZQ-225" edge="1">
          <mxGeometry width="50" height="50" relative="1" as="geometry">
            <mxPoint x="110" y="760" as="sourcePoint" />
            <mxPoint x="160" y="710" as="targetPoint" />
          </mxGeometry>
        </mxCell>
        <mxCell id="zKA0qa-9VVPBx98R9BQj-73" value="" style="endArrow=classic;html=1;rounded=0;edgeStyle=elbowEdgeStyle;exitX=1;exitY=0.5;exitDx=0;exitDy=0;elbow=vertical;entryX=1;entryY=0.5;entryDx=0;entryDy=0;" parent="1" source="kqVs6nVT71hv-M2BMfZQ-150" target="IJi7_sDKVSXKfqmQZ_vw-198" edge="1">
          <mxGeometry width="50" height="50" relative="1" as="geometry">
            <mxPoint x="410" y="-30" as="sourcePoint" />
            <mxPoint x="680" y="480" as="targetPoint" />
            <Array as="points">
              <mxPoint x="690" y="80" />
            </Array>
          </mxGeometry>
        </mxCell>
        <mxCell id="zKA0qa-9VVPBx98R9BQj-75" value="" style="endArrow=classic;html=1;rounded=0;edgeStyle=elbowEdgeStyle;exitX=1;exitY=0.5;exitDx=0;exitDy=0;entryX=0;entryY=0.5;entryDx=0;entryDy=0;" parent="1" source="IJi7_sDKVSXKfqmQZ_vw-171" target="kqVs6nVT71hv-M2BMfZQ-103" edge="1">
          <mxGeometry width="50" height="50" relative="1" as="geometry">
            <mxPoint x="-180" y="680" as="sourcePoint" />
            <mxPoint x="-130" y="630" as="targetPoint" />
            <Array as="points">
              <mxPoint x="-370" y="540" />
            </Array>
          </mxGeometry>
        </mxCell>
        <mxCell id="zKA0qa-9VVPBx98R9BQj-76" value="" style="endArrow=classic;html=1;rounded=0;edgeStyle=elbowEdgeStyle;exitX=1;exitY=0.5;exitDx=0;exitDy=0;entryX=0;entryY=0.5;entryDx=0;entryDy=0;" parent="1" source="kqVs6nVT71hv-M2BMfZQ-293" target="kqVs6nVT71hv-M2BMfZQ-43" edge="1">
          <mxGeometry width="50" height="50" relative="1" as="geometry">
            <mxPoint x="-380" y="330" as="sourcePoint" />
            <mxPoint x="-330" y="280" as="targetPoint" />
            <Array as="points">
              <mxPoint x="-140" y="260" />
            </Array>
          </mxGeometry>
        </mxCell>
      </root>
    </mxGraphModel>
  </diagram>
</mxfile>
